<?xml version="1.0" encoding="UTF-8" standalone="no"?>
<!DOCTYPE svg PUBLIC "-//W3C//DTD SVG 1.1//EN" "http://www.w3.org/Graphics/SVG/1.1/DTD/svg11.dtd">
<svg width="100%" height="100%" viewBox="0 0 800 600" version="1.1" xmlns="http://www.w3.org/2000/svg" xmlns:xlink="http://www.w3.org/1999/xlink" xml:space="preserve" xmlns:serif="http://www.serif.com/" style="fill-rule:evenodd;clip-rule:evenodd;stroke-linejoin:round;stroke-miterlimit:2;">
    <g transform="matrix(-1,1.98788e-16,-1.98788e-16,-1,399.882,315.629)">
        <g>
            <g>
                <path d="M-126.6,59.4L-124.9,58.8L-124.8,58.8C-124.5,60.6 -124.2,62.5 -123.9,64.3L-125,64.6C-125.5,64.8 -126,64.9 -126.4,65.1C-127,65.3 -127.7,65.5 -128.3,65.7C-129,66 -129.7,66.3 -130.4,66.5C-131.9,67.1 -133.4,67.6 -134.7,68.3L-134.8,68.3L-136.5,69.1C-137,69.3 -137.5,69.5 -137.9,69.8L-141,71.5C-141.6,71.8 -142.1,72.2 -142.8,72.6C-143.2,72.9 -143.6,73.1 -144,73.3L-144.6,73.7C-144.9,73.9 -145.2,74 -145.4,74.2L-148.3,76.3C-148.8,76.6 -149.2,76.9 -149.5,77.3L-152.2,79.6C-152.5,79.9 -152.9,80.3 -153.2,80.6C-154.6,81.9 -155.9,83.1 -157.1,84.5C-160.5,88.2 -163.3,91.9 -165.6,95.6C-165.6,95.6 -165.6,95.7 -165.7,95.7C-166.2,96.4 -166.6,97.2 -167.1,98.1C-167.4,98.6 -167.7,99.2 -168,99.7C-168.4,100.5 -168.8,101.3 -169.2,102.1L-169.3,102.2L-174.2,99.8L-174.1,99.7C-173.7,98.8 -173.2,97.9 -172.8,97.1C-172.8,97.1 -172.8,97 -172.7,97C-172.4,96.5 -172.1,96 -171.8,95.5C-171.3,94.6 -170.8,93.7 -170.2,92.8C-167.8,88.8 -164.8,84.9 -161.2,80.9C-159.9,79.4 -158.4,78 -157,76.7L-155.9,75.7L-155.8,75.6L-153.1,73.3C-152.6,72.9 -152.1,72.5 -151.5,72L-148.6,69.9C-148.6,69.9 -148.5,69.9 -148.5,69.8C-148.2,69.6 -147.8,69.4 -147.5,69.1L-146.9,68.7C-146.5,68.5 -146.2,68.2 -145.8,68C-145.2,67.6 -144.5,67.1 -143.7,66.7L-140.6,65C-140,64.7 -139.4,64.4 -138.7,64.1L-137.1,63.4C-135.5,62.6 -133.9,62 -132.3,61.4C-131.6,61.1 -130.9,60.9 -130.2,60.6C-130.1,60.6 -130.1,60.6 -130,60.5C-129.3,60.3 -128.6,60 -127.9,59.8C-127.5,59.7 -127.1,59.5 -126.6,59.4Z" style="fill:rgb(1,105,56);fill-rule:nonzero;"/>
                <path d="M-128,46.8L-126.6,46.4C-126.5,47 -126.5,47.5 -126.4,48.1C-126.2,49.4 -126,50.6 -125.9,51.9L-126.7,52.1L-128.6,52.7C-129.1,52.9 -129.6,53 -130,53.2C-130.8,53.5 -131.6,53.7 -132.5,54C-133.2,54.3 -134,54.6 -134.7,54.9C-136.6,55.6 -138.3,56.3 -140.1,57.2L-142.1,58.1C-142.7,58.4 -143.3,58.6 -143.8,58.9L-147.5,60.9C-148.2,61.3 -148.9,61.8 -149.7,62.3C-150.1,62.6 -150.6,62.9 -151,63.1L-151.7,63.5C-152.1,63.7 -152.4,64 -152.7,64.1L-156.1,66.6C-156.7,67 -157.2,67.4 -157.6,67.8L-160.8,70.5L-161.7,71.4C-163.4,73 -165.1,74.6 -166.6,76.3C-170.5,80.6 -173.9,84.9 -176.5,89.4C-177.1,90.3 -177.6,91.3 -178.2,92.3C-178.5,92.9 -178.8,93.4 -179.2,94L-181.6,98.8L-186.5,96.3C-186.2,95.7 -185.9,95.2 -185.6,94.6C-185.1,93.5 -184.5,92.4 -184,91.3L-184,91.2C-183.7,90.7 -183.4,90.1 -183.1,89.6C-182.5,88.5 -181.9,87.4 -181.3,86.5C-178.5,81.9 -174.9,77.2 -170.8,72.7C-169.1,70.8 -167.3,69.1 -165.6,67.5L-164.6,66.6L-164.5,66.5L-161.3,63.8C-160.8,63.3 -160.2,62.9 -159.5,62.3L-156,59.7C-155.6,59.4 -155.2,59.2 -154.8,58.9L-154.2,58.5C-153.8,58.2 -153.4,58 -153,57.7C-152.2,57.2 -151.4,56.7 -150.5,56.2L-146.9,54.2C-146.3,53.8 -145.6,53.5 -144.8,53.1L-143,52.2C-141.1,51.2 -139.1,50.5 -137.2,49.7C-136.5,49.4 -135.7,49.1 -135,48.8C-135,48.8 -134.9,48.8 -134.9,48.7C-134,48.4 -133.1,48.1 -132.2,47.8C-131.7,47.7 -131.3,47.5 -130.8,47.4L-128.8,46.8C-128.1,46.9 -128.1,46.9 -128,46.8Z" style="fill:rgb(1,105,56);fill-rule:nonzero;"/>
                <path d="M-127.3,39.6L-129.9,40.2L-133.5,41.3C-134.5,41.6 -135.5,41.9 -136.5,42.3C-137.2,42.6 -138,42.9 -138.7,43.2C-140.9,44.1 -143,44.9 -145.1,45.9L-147.3,46.9C-148,47.2 -148.7,47.5 -149.3,47.9L-153.5,50.2C-154.4,50.7 -155.2,51.2 -156.1,51.8C-156.6,52.1 -157,52.4 -157.4,52.7L-158.1,53.2C-158.5,53.5 -159,53.7 -159.3,54L-163.2,56.9C-163.9,57.4 -164.4,57.8 -164.9,58.3L-168.5,61.4L-169.2,62C-171.3,64 -173.3,65.9 -175.2,68C-179.7,72.9 -183.5,77.9 -186.6,82.9C-187.3,84 -188,85.1 -188.6,86.4C-188.9,87 -189.3,87.6 -189.6,88.2C-190.2,89.3 -190.8,90.5 -191.4,91.7L-196.3,89.3C-195.7,88 -195.1,86.8 -194.4,85.5C-194.1,84.9 -193.7,84.3 -193.4,83.7C-192.7,82.5 -192,81.2 -191.2,80C-188,74.7 -183.9,69.4 -179.3,64.3C-177.3,62 -175.1,60 -173,58L-172.2,57.2L-168.5,54.1C-167.9,53.6 -167.2,53.1 -166.4,52.5L-162.4,49.6C-161.9,49.3 -161.5,49 -161,48.7L-160.3,48.2C-159.9,47.9 -159.4,47.6 -159,47.4C-158.1,46.8 -157.1,46.2 -156.1,45.6L-151.9,43.3C-151.2,42.9 -150.4,42.5 -149.5,42.1L-147.4,41.1C-145.1,40 -142.8,39.1 -140.5,38.2C-139.8,37.9 -139,37.6 -138.3,37.3L-138.2,37.3C-137.1,36.9 -136,36.6 -135,36.3L-131.3,35.2L-131.1,35.2L-127.6,34.3C-127.7,35.9 -127.5,37.7 -127.3,39.6Z" style="fill:rgb(1,105,56);fill-rule:nonzero;"/>
            </g>
            <g>
                <path d="M-72,105L-72.1,105.2C-72.4,106 -72.7,106.7 -72.9,107.5C-73.1,108.2 -73.4,108.8 -73.6,109.5C-75.8,109.3 -77.8,109.2 -79.9,109.2C-86.9,109 -93,109.3 -98.6,110.2C-104.7,111.1 -110.6,112.6 -116.1,114.6C-121.4,116.6 -126.7,119.4 -131.7,122.9L-134.6,124.9C-134.8,125 -134.9,125.1 -135.1,125.3L-137.9,127.6L-141.4,123.3L-138.7,121.1C-138.5,120.9 -138.3,120.7 -138,120.5C-138,120.5 -137.9,120.5 -137.9,120.4L-135,118.3C-129.6,114.6 -123.9,111.6 -118.2,109.4C-112.4,107.2 -106.1,105.6 -99.6,104.7C-94.9,104 -89.8,103.6 -84.1,103.6C-82.8,103.6 -81.4,103.6 -80,103.7C-77.4,103.7 -74.9,103.9 -72.4,104.1L-71.8,104.1C-71.7,104.4 -71.9,104.7 -72,105Z" style="fill:rgb(1,105,56);fill-rule:nonzero;"/>
                <path d="M-68.9,97.4L-69.1,97.4C-69.9,97.3 -70.6,97.3 -71.4,97.2C-74.1,97 -76.8,96.8 -79.6,96.7C-87.3,96.5 -94.1,96.8 -100.4,97.8C-107.4,98.8 -114.2,100.6 -120.5,102.9C-126.7,105.3 -132.9,108.5 -138.7,112.5L-142,114.8C-142.2,115 -142.4,115.1 -142.6,115.3L-147.2,119.1L-150.7,114.8L-146.1,111C-145.8,110.8 -145.6,110.6 -145.3,110.4C-145.3,110.4 -145.2,110.4 -145.2,110.3L-141.8,107.9C-135.6,103.6 -129,100.2 -122.4,97.6C-115.8,95.1 -108.6,93.3 -101.2,92.2C-95.9,91.4 -90.2,91 -84,91C-82.5,91 -81,91 -79.5,91.1C-76.6,91.1 -73.8,91.4 -71,91.6C-70.2,91.7 -69.5,91.7 -68.7,91.8L-68.6,91.8C-68,91.9 -67.3,92 -66.7,92C-67.4,93.9 -68.1,95.6 -68.9,97.4Z" style="fill:rgb(1,105,56);fill-rule:nonzero;"/>
                <path d="M-63.5,85.6C-64.2,85.5 -64.9,85.4 -65.6,85.3L-67.9,85L-70.1,84.8C-73.1,84.6 -76.1,84.3 -79.2,84.3C-87.7,84.1 -95.2,84.5 -102.2,85.5C-110.1,86.7 -117.8,88.6 -124.9,91.3C-132.1,94 -139.1,97.7 -145.7,102.3L-149.4,104.9C-149.6,105.1 -149.9,105.3 -150.1,105.5L-152.8,107.7L-156.3,103.4L-153.6,101.2C-153.3,101 -153,100.7 -152.7,100.4L-148.8,97.7C-141.8,92.9 -134.3,89 -126.8,86.1C-119.3,83.3 -111.3,81.2 -103,80C-97.1,79.1 -90.8,78.6 -84,78.6C-82.4,78.6 -80.8,78.6 -79.1,78.7C-75.9,78.7 -72.7,79 -69.7,79.2L-67.4,79.4L-67.3,79.4L-65,79.7C-63.6,79.9 -62.3,80 -60.9,80.2C-61.8,82.2 -62.6,83.9 -63.5,85.6Z" style="fill:rgb(1,105,56);fill-rule:nonzero;"/>
            </g>
            <g>
                <path d="M271,-40.3L264.4,-38.8L260.2,-37.5C259.9,-37.4 259.6,-37.3 259.3,-37.2C258.9,-37.1 258.5,-37 258.1,-36.8L254,-35.1C253.8,-35 253.5,-34.9 253.3,-34.8C252.9,-34.6 252.5,-34.5 252.2,-34.3C252.2,-34.3 252.1,-34.3 252.1,-34.2L248.1,-32.2C248.1,-32.2 248,-32.2 248,-32.1C247.6,-31.9 247.1,-31.6 246.6,-31.3L242.7,-28.9L238.5,-25.8L234.6,-22.3L231.7,-19.2L231.6,-19.1C231.2,-18.8 230.9,-18.3 230.5,-17.8L229.1,-16.1C228.9,-15.9 228.7,-15.6 228.5,-15.4C228.3,-15.1 228,-14.9 227.9,-14.6C227.9,-14.6 227.9,-14.5 227.8,-14.5L226.6,-12.7C223.5,-8.1 221.1,-3.1 219.6,2L218.7,5.4C218.4,5.3 218.2,5.2 217.9,5.1C216.5,4.6 215,4.2 213.5,3.7L214.3,0.5L214.3,0.4C216,-5.3 218.7,-10.8 222,-15.8L223.2,-17.6C223.5,-18.1 223.9,-18.6 224.2,-19C224.3,-19.2 224.5,-19.3 224.7,-19.6L226.1,-21.4C226.5,-22 227,-22.6 227.7,-23.2L230.7,-26.3C230.8,-26.4 230.8,-26.4 230.9,-26.5L235,-30.1C235.1,-30.2 235.1,-30.2 235.2,-30.3L239.6,-33.6C239.7,-33.7 239.7,-33.7 239.8,-33.7L243.7,-36.1C244.3,-36.5 244.9,-36.9 245.7,-37.2L249.6,-39.2C250.2,-39.5 250.8,-39.8 251.3,-40C251.5,-40.1 251.7,-40.1 251.9,-40.2L256.1,-41.9L256.2,-41.9C256.7,-42.1 257.2,-42.2 257.7,-42.4C258,-42.5 258.2,-42.6 258.5,-42.6L262.8,-44C262.9,-44 262.9,-44 263,-44.1L269.8,-45.7L270,-45.7L277.2,-46.8L278,-41.4L271,-40.3Z" style="fill:rgb(1,105,56);fill-rule:nonzero;"/>
                <path d="M268.7,-52.5L261.1,-50.7L256.2,-49.2C255.9,-49.1 255.6,-49 255.3,-48.9C254.8,-48.7 254.3,-48.6 253.9,-48.5L249.1,-46.5C248.8,-46.4 248.6,-46.3 248.3,-46.2C247.8,-46 247.3,-45.8 247,-45.6L246.9,-45.6L242.2,-43.2C241.6,-42.9 241,-42.6 240.4,-42.2L235.9,-39.4L230.8,-35.6L229.8,-34.8C219.5,-26.2 211.7,-14.5 207.8,-1.8C207.6,-1.2 207.5,-0.5 207.3,0.1C207.2,0.5 207.1,0.9 207,1.4C206.6,1.3 206.1,1.1 205.7,1C204.4,0.6 203.1,0.1 201.8,-0.3C201.9,-0.6 202,-0.9 202,-1.2C202.2,-1.8 202.3,-2.5 202.5,-3.1L202.5,-3.2C206.7,-16.9 215.2,-29.6 226.2,-38.8L227.2,-39.7C227.3,-39.7 227.3,-39.8 227.4,-39.8L232.7,-43.7C232.8,-43.7 232.8,-43.8 232.9,-43.8L237.5,-46.7C238.2,-47.2 239,-47.6 239.8,-48L244.4,-50.3C245.1,-50.7 245.7,-50.9 246.3,-51.2C246.5,-51.3 246.7,-51.4 247,-51.5L251.9,-53.5C252.5,-53.7 253.1,-53.9 253.6,-54.1C253.9,-54.2 254.2,-54.3 254.5,-54.4L259.5,-56C259.6,-56 259.6,-56 259.7,-56.1L267.5,-57.9L267.7,-57.9L273.6,-58.8L274.4,-53.4L268.7,-52.5Z" style="fill:rgb(1,105,56);fill-rule:nonzero;"/>
                <path d="M266.3,-64.7L257.8,-62.7L252.3,-61C252,-60.9 251.6,-60.8 251.3,-60.7C250.7,-60.5 250.1,-60.3 249.6,-60.2L244.1,-58C243.8,-57.9 243.5,-57.8 243.2,-57.6C242.6,-57.4 242,-57.1 241.5,-56.8L236.1,-54.1C235.4,-53.8 234.7,-53.3 233.9,-52.9L228.7,-49.7L222.8,-45.3L221.7,-44.3C209.6,-34.2 200.4,-20.4 195.8,-5.4L195.5,-4.2C195.4,-3.7 195.2,-3.1 195.1,-2.6C195,-2.6 194.8,-2.7 194.7,-2.7C193.2,-3.2 191.6,-3.7 189.9,-4.3C190,-4.7 190.1,-5.2 190.2,-5.6L190.5,-6.9L190.5,-7C195.4,-23 205.2,-37.8 218.1,-48.5L219.2,-49.5C219.2,-49.5 219.3,-49.6 219.4,-49.6L225.5,-54.1C225.6,-54.1 225.6,-54.2 225.7,-54.2L231,-57.5C231.8,-58 232.7,-58.6 233.6,-59L238.9,-61.7C239.7,-62.1 240.4,-62.4 241.1,-62.7C241.4,-62.8 241.6,-62.9 241.9,-63L247.5,-65.3C248.2,-65.5 248.8,-65.7 249.5,-66C249.8,-66.1 250.1,-66.2 250.5,-66.3L256.1,-68.1C256.2,-68.1 256.2,-68.1 256.3,-68.2L265,-70.2L265.2,-70.2L270.6,-71L271.4,-65.6L266.3,-64.7Z" style="fill:rgb(1,105,56);fill-rule:nonzero;"/>
            </g>
            <g>
                <g>
                    <path d="M104.6,20.3C100.5,21.2 96.3,22.5 92.2,24.1C92.1,23.3 91.9,22.5 91.7,21.5L91.5,20.5C91.4,19.9 91.2,19.2 91,18.6C95.1,17 99.3,15.7 103.5,14.8C108.5,13.7 113.8,13.1 119.1,12.9C119.8,14.6 120.4,16.4 121.1,18.3C115.3,18.5 109.8,19.2 104.6,20.3Z" style="fill:rgb(1,105,56);fill-rule:nonzero;"/>
                    <path d="M246.4,48.1C245.1,47.9 243.7,47.7 242.3,47.5C241.7,47.4 241,47.3 240.3,47.2C239,47 237.6,46.7 236.3,46.4C222.6,43.6 210.1,39.4 197.9,35.4L193.8,34C183.7,30.6 174.1,27.4 164.5,24.8C164.2,23.9 164,23 163.7,22.2C163.4,21 163,19.8 162.7,18.7C173.5,21.5 184.3,25.1 195.6,28.9L199.6,30.2C211.6,34.2 224,38.3 237.4,41.1C238.6,41.4 239.9,41.6 241.2,41.8C241.9,41.9 242.5,42 243.1,42.1C244.4,42.3 245.7,42.5 246.9,42.6L246.4,48.1Z" style="fill:rgb(1,105,56);fill-rule:nonzero;"/>
                </g>
                <g>
                    <path d="M249.9,36.1C249.3,36 248.6,35.9 248,35.8C246.8,35.6 245.6,35.5 244.3,35.3C243.7,35.2 243,35.1 242.4,35C241.2,34.8 240,34.6 238.8,34.3C225.9,31.7 213.2,27.4 201,23.4L197.3,22.2C185.5,18.2 173.2,14.1 160.9,11.1C160.7,11.1 160.6,11 160.4,11C159.9,9.3 159.3,7.7 158.8,6C158.7,5.6 158.6,5.3 158.4,4.9C159.6,5.2 160.9,5.5 162.2,5.8C174.7,8.9 187,13 199,17L202.7,18.2C214.8,22.2 227.3,26.4 239.9,29C241,29.2 242.1,29.4 243.3,29.6C244,29.7 244.6,29.8 245.2,29.9C246.3,30.1 247.5,30.2 248.6,30.4C249.2,30.5 249.9,30.6 250.5,30.7L249.9,36.1Z" style="fill:rgb(1,105,56);fill-rule:nonzero;"/>
                    <path d="M101.9,8.2C97.5,9.2 93.2,10.5 88.9,12.1C88.3,10.4 87.6,8.7 86.8,7C91.4,5.2 96.1,3.8 100.7,2.8C104.8,1.9 109.1,1.3 113.4,0.9C113.6,1.2 113.8,1.5 113.9,1.9C114.6,3.2 115.3,4.6 116.1,6.2C111.3,6.5 106.5,7.2 101.9,8.2Z" style="fill:rgb(1,105,56);fill-rule:nonzero;"/>
                </g>
                <g>
                    <path d="M248.4,23.4C247.7,23.3 247,23.2 246.2,23.1C245.6,23 245,22.9 244.4,22.8C243.4,22.6 242.3,22.4 241.2,22.2C229,19.7 216.8,15.6 203.8,11.3L200.7,10.3C189,6.3 176.7,2.2 163.9,-1C161.1,-1.7 158.3,-2.3 155.6,-2.9C155.2,-3.9 154.7,-5 154.3,-6.2L154.2,-6.3C153.8,-7.2 153.4,-8.2 153,-9C156.9,-8.3 161,-7.4 165.2,-6.3C178.2,-3.1 190.6,1 202.5,5L205.6,6C218.4,10.3 230.5,14.3 242.4,16.7C243.4,16.9 244.3,17.1 245.4,17.3C246,17.4 246.6,17.5 247.2,17.6C247.8,17.7 248.5,17.8 249.1,17.9L248.4,23.4Z" style="fill:rgb(1,105,56);fill-rule:nonzero;"/>
                    <path d="M99.3,-3.9C94.1,-2.8 88.9,-1.2 83.8,0.8C82.9,-0.8 81.9,-2.4 80.9,-4C86.5,-6.2 92.3,-8 98.1,-9.3C100.6,-9.8 103.1,-10.3 105.7,-10.7C105.9,-10.5 106.1,-10.2 106.3,-10C106.6,-9.6 107,-9.1 107.4,-8.5L107.5,-8.4C108,-7.7 108.6,-6.8 109.4,-5.7C109.4,-5.7 109.4,-5.6 109.5,-5.6C106,-5.2 102.6,-4.6 99.3,-3.9Z" style="fill:rgb(1,105,56);fill-rule:nonzero;"/>
                </g>
            </g>
            <g>
                <g>
                    <path d="M181.4,75.5C181.8,75.6 182.1,75.7 182.5,75.8C185.6,80 188.9,84.2 192.6,88.4C194.1,90.2 195.8,91.9 197.4,93.6L198,94.2L194,98L193.4,97.4C191.7,95.7 190,93.8 188.4,92C183.2,86.2 178.6,80.3 174.6,74.2C177,74.6 179.2,75 181.4,75.5Z" style="fill:rgb(1,105,56);fill-rule:nonzero;"/>
                    <path d="M156.4,33.6C156.4,33.5 156.3,33.4 156.3,33.3C155.5,30.7 154.8,28 154,25.3C153.1,22.3 152.2,19.2 151.3,16C149.2,9 147.2,3.3 145,-1.9C142.4,-8 139.4,-13.8 136,-19.2C134.2,-22 132.2,-24.9 130,-27.7C131.9,-28.2 133.8,-28.7 135.7,-29.2C137.4,-26.9 139.1,-24.5 140.6,-22.2C144.2,-16.6 147.4,-10.5 150.1,-4.1C152.4,1.2 154.4,7.1 156.6,14.3C157.6,17.5 158.5,20.6 159.3,23.7C160.1,26.4 160.8,29 161.6,31.6C161.8,32.2 161.9,32.8 162.1,33.3C160.2,33.5 158.3,33.5 156.4,33.6Z" style="fill:rgb(1,105,56);fill-rule:nonzero;"/>
                </g>
                <g>
                    <path d="M165.9,73.4L166,73.4C168,76.7 170.1,79.9 172.2,82.8C176.2,88.3 179.7,92.6 183.3,96.6C184.9,98.5 186.8,100.4 188.5,102.2C189.2,103 190,103.7 190.7,104.5L186.7,108.3C186,107.5 185.3,106.8 184.5,106C182.7,104.1 180.8,102.2 179.1,100.2C175.4,96.1 171.8,91.6 167.7,86C164.9,82.1 162.2,77.8 159.6,73.4C161.7,73.3 163.8,73.3 165.9,73.4Z" style="fill:rgb(1,105,56);fill-rule:nonzero;"/>
                    <path d="M144,34.8L143.8,34.8C143.2,32.8 142.6,30.8 142,28.7C139.5,20.1 137,11.2 133.5,2.9C131.2,-2.6 128.5,-7.8 125.4,-12.6C122.7,-16.8 119.5,-21 116,-25.2C118.1,-25.5 120.2,-25.8 122.4,-26.2C125.2,-22.7 127.8,-19.1 130.1,-15.6C133.3,-10.6 136.2,-5.1 138.6,0.7C142.3,9.3 144.9,18.3 147.4,27.1C148.1,29.4 148.7,31.7 149.4,34C147.6,34.3 145.8,34.5 144,34.8Z" style="fill:rgb(1,105,56);fill-rule:nonzero;"/>
                </g>
                <g>
                    <path d="M150,74.2C150.7,74.1 151.4,74 152.1,73.9C155.3,79.6 158.7,85 162.2,89.9C166.4,95.6 170.3,100.4 174.1,104.7C175.9,106.8 177.8,108.8 179.7,110.8L179.9,111L175.9,114.8L175.7,114.6C173.8,112.6 171.8,110.5 169.9,108.3C166,104 162,99 157.7,93.1C154,88 150.5,82.4 147.2,76.4C146.9,75.9 146.6,75.3 146.3,74.7C147.5,74.6 148.7,74.4 150,74.2Z" style="fill:rgb(1,105,56);fill-rule:nonzero;"/>
                    <path d="M131.7,37.3C131.2,35.6 130.7,34 130.3,32.3C127.8,23.5 125.4,15.3 122.2,7.8C120.1,2.9 117.8,-1.6 115.1,-5.9C112.4,-10.1 109.4,-14.1 105.8,-18.2C105.4,-18.7 104.9,-19.1 104.5,-19.6C103.8,-20.3 103.2,-21.1 102.5,-21.8L100.2,-24.1L106,-24.1C106.6,-24.1 107.1,-24.1 107.7,-24.2C108,-23.9 108.3,-23.6 108.6,-23.2C109,-22.7 109.4,-22.3 109.9,-21.8C113.7,-17.5 117,-13.1 119.8,-8.7C122.7,-4.2 125.2,0.6 127.4,5.8C130.7,13.6 133.1,22 135.7,30.9C136.2,32.6 136.7,34.4 137.2,36.2C135.3,36.5 133.5,36.9 131.7,37.3Z" style="fill:rgb(1,105,56);fill-rule:nonzero;"/>
                </g>
            </g>
            <g>
                <path d="M217.9,90.1C217.4,89.7 216.9,89.2 216.5,88.8C215.8,88.2 215.1,87.5 214.4,87L211.7,84.8L210.8,84.1C198.2,74.7 182.4,69.2 166.2,68.6C158.4,68.3 150.2,69.1 142,71C139.3,71.6 136.7,72.4 134.2,73.2C132.6,71.8 131,70.5 129.3,69.1C133,67.7 136.9,66.5 140.8,65.6C148.2,63.9 155.6,63 162.7,63C164,63 165.2,63 166.5,63.1C183.8,63.7 200.7,69.6 214.2,79.7L215.2,80.4L215.3,80.5L218.1,82.8C218.9,83.4 219.6,84.1 220.4,84.8C220.9,85.2 221.3,85.6 221.8,86L217.9,90.1Z" style="fill:rgb(1,105,56);fill-rule:nonzero;"/>
                <path d="M225.1,80L224.8,79.7C223.9,78.9 223.1,78.1 222.2,77.4L219,74.8L217.9,74C203.3,63.1 185,56.7 166.4,56C157.5,55.6 148.2,56.5 138.8,58.7C133.1,60 127.7,61.8 122.4,64.1C120.6,62.9 118.8,61.7 117,60.5C123.5,57.5 130.4,55.1 137.6,53.4C146,51.5 154.3,50.5 162.4,50.5C163.8,50.5 165.2,50.5 166.6,50.6C186.3,51.3 205.7,58.1 221.2,69.6L222.3,70.4L222.4,70.5L225.6,73.1C226.6,73.9 227.5,74.7 228.4,75.5L228.7,75.8L225.1,80Z" style="fill:rgb(1,105,56);fill-rule:nonzero;"/>
                <path d="M232.3,69.8C231.6,69.2 230.9,68.6 230.3,68L226.7,65.1L225.5,64.2C221.6,61.2 217.3,58.5 212.2,55.8C210.1,54.7 208,53.7 205.8,52.7L204.7,52.2C202.4,51.2 200.2,50.3 197.9,49.6C192.8,47.8 187.7,46.5 182.7,45.6C177.6,44.7 172.4,44.1 167.2,43.9C147.4,43.2 127.8,47.5 110.3,56.5C108.4,55.4 106.5,54.4 104.5,53.3C104.5,53.3 104.6,53.3 104.6,53.2C122.4,43.4 142.4,38.3 162.8,38.3C164.3,38.3 165.9,38.3 167.4,38.4C172.9,38.6 178.4,39.2 183.7,40.2C188.9,41.2 194.3,42.6 199.6,44.4C202.1,45.2 204.5,46.2 206.8,47.2L207.3,47.4L207.4,47.4L208.1,47.7C210.3,48.7 212.7,49.8 214.9,51C220.2,53.8 224.8,56.7 228.9,59.8L230.2,60.7C230.2,60.7 230.3,60.7 230.3,60.8L234,63.8C234.7,64.4 235.5,65.1 236.2,65.7L232.3,69.8Z" style="fill:rgb(1,105,56);fill-rule:nonzero;"/>
            </g>
            <g>
                <path d="M-4.2,85.9C-0.1,81.1 3.8,76.5 7.3,71.8C10.1,68.1 12.7,64.4 15.1,60.6C16.5,58.4 17.9,55.9 19.3,53.4C20.7,54.5 22.2,55.6 23.8,56.7C22.5,59.1 21.1,61.4 19.8,63.6C17.3,67.5 14.6,71.4 11.8,75.2C8.1,79.9 4.2,84.5 0,89.4C-2.4,92.2 -4.8,95 -7.2,98C-11.1,102.8 -14.1,106.9 -16.8,110.9C-19.9,115.7 -22.6,120.6 -24.7,125.5C-26.8,130.4 -28.6,135.7 -29.9,141.3C-31,146 -31.9,150.9 -32.6,157.3L-32.8,159.2C-32.9,160.5 -33,161.9 -33.1,163.2L-33.3,167L-38.8,166.7L-38.6,162.8C-38.5,161.4 -38.4,160 -38.3,158.7L-38.1,156.8C-37.3,150.1 -36.5,144.9 -35.3,140C-33.9,134.1 -32,128.5 -29.8,123.3C-27.6,118.1 -24.7,112.9 -21.5,107.8C-18.8,103.6 -15.6,99.4 -11.6,94.4C-9,91.5 -6.6,88.6 -4.2,85.9Z" style="fill:rgb(1,105,56);fill-rule:nonzero;"/>
                <path d="M-1.9,102.3C0.4,99.5 2.8,96.7 5.1,94C9.2,89.2 13.4,84.3 17.2,79.3C20.2,75.3 23,71.2 25.6,67.2C26.9,65.1 28.2,62.9 29.5,60.5C31,61.5 32.6,62.4 34.2,63.3C32.9,65.7 31.6,67.9 30.2,70.1C27.6,74.3 24.6,78.5 21.5,82.6C17.6,87.8 13.3,92.8 9.2,97.6C6.9,100.3 4.5,103.1 2.3,105.8C-1.3,110.2 -4.1,114 -6.5,117.6C-9.2,121.8 -11.5,126.1 -13.4,130.4C-15.2,134.7 -16.8,139.3 -18,144.2C-19,148.3 -19.8,152.8 -20.4,158.6C-20.5,159.3 -20.5,159.9 -20.6,160.6C-20.7,161.8 -20.8,162.9 -20.9,164L-21.2,169.5L-26.7,169.2L-26.4,163.7C-26.3,162.5 -26.2,161.3 -26.1,160.1C-26,159.5 -26,158.8 -25.9,158.1C-25.2,152 -24.4,147.3 -23.4,143C-22.1,137.8 -20.5,132.9 -18.5,128.3C-16.5,123.7 -14.1,119.1 -11.2,114.7C-8.5,110.8 -5.6,106.9 -1.9,102.3Z" style="fill:rgb(1,105,56);fill-rule:nonzero;"/>
                <path d="M-7,133.1C-3.9,125.7 0.7,118.7 7.7,110.1C9.8,107.5 12.1,104.9 14.4,102.1C18.6,97.2 22.9,92.1 27,86.7C30.2,82.4 33.3,78 36,73.6C37.4,71.4 38.8,69 40.2,66.5C41.8,67.4 43.4,68.2 45.1,69C43.7,71.6 42.2,74.1 40.7,76.5C37.9,81 34.7,85.6 31.4,90C27.2,95.6 22.8,100.7 18.6,105.7C16.3,108.4 14.1,111 11.9,113.6C5.2,121.7 0.9,128.4 -2,135.2C-3.6,138.8 -4.9,142.8 -5.9,147C-6.8,150.6 -7.4,154.5 -8,159.7C-8.1,160.4 -8.1,161 -8.2,161.7C-8.3,162.7 -8.4,163.7 -8.4,164.6L-8.5,167.2L-14,167L-13.9,164.4C-13.8,163.4 -13.7,162.3 -13.6,161.3C-13.5,160.7 -13.5,160 -13.4,159.3C-12.8,153.8 -12.1,149.6 -11.1,145.8C-10.1,141.3 -8.7,137 -7,133.1Z" style="fill:rgb(1,105,56);fill-rule:nonzero;"/>
            </g>
            <g>
                <path d="M93.3,151.2C92.7,149.4 91.9,147.1 90.8,144.9C87.4,137.5 82.7,131.3 77.1,126.4C77,124 77,121.7 77.1,119.4C84.9,125 91.4,132.9 95.8,142.5C97,144.9 97.9,147.4 98.5,149.3L93.3,151.2Z" style="fill:rgb(1,105,56);fill-rule:nonzero;"/>
                <path d="M105.9,149.7C104.9,146.6 103.7,143.1 102.1,139.8C102.1,139.8 102.1,139.7 102,139.7C101.5,138.5 100.9,137.4 100.2,136.2C99.9,135.7 99.6,135.1 99.4,134.6C99.1,134.1 98.8,133.6 98.5,133C97.8,131.8 97.1,130.7 96.4,129.7L96.3,129.6C94.4,126.7 92,123.8 89,120.7L86.9,118.6C86.5,118.2 86,117.8 85.5,117.4C85.2,117.2 84.9,116.9 84.7,116.7L83.6,115.8C83.4,115.6 83.1,115.5 82.9,115.3L80.1,113.2L77.5,111.5C77.7,109.5 77.9,107.5 78.3,105.6L79.2,106.1C79.2,106.1 79.3,106.1 79.3,106.2C79.6,106.4 79.9,106.6 80.2,106.8L83.2,108.7C83.3,108.7 83.3,108.8 83.4,108.8L86.3,110.9C86.6,111.1 86.9,111.3 87.2,111.6L88.4,112.6C88.7,112.8 88.9,113 89.2,113.3C89.7,113.7 90.3,114.2 90.8,114.7L93,116.9C96.2,120.2 98.8,123.4 100.9,126.6C101.8,127.8 102.5,129.1 103.2,130.3C103.5,130.8 103.8,131.3 104.1,131.9C104.1,132 104.2,132 104.2,132.1C104.5,132.6 104.8,133.2 105,133.7C105.7,134.9 106.4,136.2 106.9,137.6C108.6,141.2 109.9,144.9 111,148.1L105.9,149.7Z" style="fill:rgb(1,105,56);fill-rule:nonzero;"/>
                <path d="M116.8,143.3C115.6,139.8 114.5,137 113.3,134.6L113.3,134.5C112.7,133 111.9,131.6 111.1,130.1C110.8,129.6 110.5,129 110.2,128.5C109.9,128 109.6,127.4 109.2,126.9C108.3,125.4 107.5,124.1 106.6,122.8C106.6,122.8 106.6,122.7 106.5,122.7C104.2,119.2 101.3,115.7 97.8,112.1L95.3,109.6C94.7,109.1 94.1,108.6 93.5,108C93.2,107.8 92.9,107.5 92.6,107.3L91.3,106.2C91,106 90.7,105.7 90.4,105.5L87.1,103.1L83.6,100.9C83.3,100.7 83,100.5 82.7,100.3L80.5,99C80.2,98.9 80,98.7 79.7,98.6C80.1,96.8 80.5,95 81.1,93.1C81.8,93.5 82.5,93.8 83.1,94.2L85.5,95.5C85.5,95.5 85.6,95.5 85.6,95.6C86,95.8 86.3,96.1 86.7,96.3L90.3,98.6C90.4,98.6 90.4,98.7 90.5,98.7L93.9,101.2C94.3,101.5 94.6,101.7 95,102.1L96.4,103.3C96.7,103.5 97,103.8 97.2,104C97.9,104.6 98.5,105.1 99.2,105.8L101.8,108.4C105.6,112.3 108.6,116 111.1,119.8C112.2,121.3 113.1,122.8 114,124.3C114.3,124.8 114.6,125.4 115,125.9C115,126 115.1,126 115.1,126.1C115.4,126.6 115.7,127.2 116,127.7C116.8,129.2 117.7,130.8 118.4,132.4C119.7,135.1 120.8,138 122.1,141.7L116.8,143.3Z" style="fill:rgb(1,105,56);fill-rule:nonzero;"/>
            </g>
            <g>
                <path d="M-257.9,-1L-254.6,-2.5C-253.8,-2.8 -253.1,-3.2 -252.3,-3.6L-248.9,-5.4C-248.2,-5.8 -247.5,-6.2 -246.7,-6.7C-246.3,-6.9 -246,-7.1 -245.6,-7.3L-244,-8.3L-242.5,-9.3C-242.2,-9.5 -241.8,-9.8 -241.5,-10C-240.8,-10.5 -240.1,-11 -239.4,-11.5C-235.4,-14.5 -231.6,-18 -228,-21.9C-224.8,-25.6 -221.8,-29.8 -219.1,-34.4C-217.3,-37.7 -215.7,-41 -214.4,-44.3C-212.1,-44.9 -209.9,-45.4 -207.9,-46C-209.6,-41.3 -211.7,-36.5 -214.4,-31.7C-217.3,-26.7 -220.5,-22.2 -224,-18.3C-227.8,-14.1 -231.9,-10.3 -236.2,-7.1C-237,-6.5 -237.7,-6 -238.5,-5.5C-238.8,-5.3 -239.2,-5 -239.5,-4.8L-241.1,-3.7L-241.2,-3.6L-242.9,-2.6C-243.3,-2.4 -243.6,-2.2 -244,-2C-244.8,-1.5 -245.6,-1.1 -246.5,-0.6L-249.9,1.1C-250.8,1.6 -251.7,2 -252.5,2.3L-255.9,3.8C-257.3,4.4 -258.7,4.9 -260.1,5.4C-260.7,5.6 -261.3,5.8 -261.8,6L-263.7,0.8C-263.1,0.6 -262.5,0.4 -261.9,0.1C-260.5,0 -259.1,-0.5 -257.9,-1Z" style="fill:rgb(1,105,56);fill-rule:nonzero;"/>
                <path d="M-260.8,-13.3C-259.7,-13.8 -258.7,-14.2 -257.7,-14.7C-254.2,-16.4 -250.5,-18.6 -246.7,-21.3C-243.4,-23.8 -240.2,-26.7 -237.2,-30C-234.5,-33.1 -232,-36.6 -229.8,-40.4C-229.7,-40.5 -229.7,-40.6 -229.6,-40.8C-228.1,-41.1 -226.6,-41.4 -225,-41.7C-224.2,-41.9 -223.5,-42 -222.7,-42.2C-223.4,-40.7 -224.2,-39.2 -225,-37.7C-227.5,-33.5 -230.2,-29.7 -233.1,-26.3C-236.3,-22.7 -239.8,-19.6 -243.4,-16.9C-247.6,-13.9 -251.5,-11.6 -255.2,-9.8C-256.3,-9.2 -257.5,-8.7 -258.6,-8.2C-259.2,-8 -259.8,-7.7 -260.3,-7.4L-260.4,-7.4C-261.5,-6.9 -262.7,-6.5 -263.8,-6.1C-264.4,-5.9 -265,-5.7 -265.6,-5.4L-267.5,-10.5C-266.9,-10.7 -266.3,-11 -265.6,-11.2C-264.5,-11.6 -263.5,-12 -262.4,-12.4C-262,-12.8 -261.4,-13 -260.8,-13.3Z" style="fill:rgb(1,105,56);fill-rule:nonzero;"/>
                <path d="M-263.2,-25.8L-260.7,-27.1C-260.2,-27.3 -259.8,-27.6 -259.3,-27.9C-259,-28.1 -258.7,-28.3 -258.3,-28.5L-257.2,-29.2L-256.2,-29.9C-255.9,-30.1 -255.6,-30.3 -255.3,-30.5C-254.9,-30.8 -254.5,-31.1 -254.1,-31.4C-251.4,-33.4 -249,-35.7 -246.5,-38.3C-246.4,-38.4 -246.4,-38.5 -246.3,-38.5C-245,-38.6 -243.6,-38.8 -242.2,-38.9C-241.1,-39 -239.9,-39.2 -238.7,-39.4C-239.9,-37.7 -241.1,-36.1 -242.4,-34.6C-245.1,-31.6 -247.8,-29.1 -250.8,-26.9C-251.3,-26.5 -251.8,-26.2 -252.3,-25.9C-252.6,-25.7 -252.9,-25.5 -253.2,-25.3L-254.3,-24.5C-254.4,-24.5 -254.4,-24.4 -254.5,-24.4L-255.7,-23.7C-256,-23.5 -256.3,-23.4 -256.6,-23.2C-257.1,-22.9 -257.7,-22.6 -258.3,-22.2L-260.7,-21C-261.4,-20.6 -262,-20.4 -262.6,-20.1L-265.2,-19L-267.4,-24L-264.8,-25.1C-264.2,-25.3 -263.7,-25.5 -263.2,-25.8Z" style="fill:rgb(1,105,56);fill-rule:nonzero;"/>
            </g>
            <g>
                <path d="M-147.1,-20.5C-148.4,-20.7 -149.6,-20.8 -150.9,-21C-155.6,-28 -159.8,-36.2 -164.1,-44.7L-164.9,-46.2C-170.5,-57.2 -176.4,-68.6 -184.7,-79.4C-189.2,-85.2 -194.1,-90.2 -199.3,-94.3C-205.1,-98.9 -211.3,-102.5 -217.6,-105.1C-223.8,-107.6 -230.4,-109.4 -237.9,-110.6L-243.1,-111.2C-243.4,-111.2 -243.7,-111.3 -244.1,-111.3C-244.6,-111.4 -245.1,-111.4 -245.6,-111.4L-249.7,-111.6C-250.9,-111.7 -252.1,-111.7 -253.3,-111.7L-261.3,-111.5L-264.2,-111.3L-264.6,-116.8L-261.6,-117L-261.4,-117L-253.2,-117.2L-253,-117.2C-251.7,-117.2 -250.5,-117.1 -249.2,-117.1L-245.1,-116.9C-244.5,-116.9 -243.8,-116.8 -243.2,-116.7C-242.9,-116.7 -242.6,-116.6 -242.3,-116.6L-237,-116L-236.9,-116C-229,-114.7 -221.9,-112.8 -215.4,-110.1C-208.5,-107.3 -201.9,-103.4 -195.7,-98.5C-190.2,-94.1 -185,-88.8 -180.2,-82.7C-171.5,-71.6 -165.5,-59.9 -159.8,-48.6L-159,-47.1C-153.8,-37 -148.9,-27.4 -143.1,-19.8C-144.6,-20.1 -145.8,-20.3 -147.1,-20.5Z" style="fill:rgb(1,105,56);fill-rule:nonzero;"/>
                <path d="M-166,-21.9C-166.3,-22.4 -166.6,-22.9 -166.9,-23.4C-169.8,-28.5 -172.5,-33.8 -175.1,-38.9L-175.7,-40.1C-180.9,-50.3 -186.8,-61.9 -194.5,-71.7C-198.4,-76.7 -202.7,-81 -207.1,-84.6C-212,-88.5 -217.1,-91.5 -222.5,-93.7C-227.7,-95.8 -233.4,-97.4 -239.8,-98.4L-244.3,-98.9C-244.6,-98.9 -244.9,-99 -245.2,-99C-245.6,-99.1 -246.1,-99.1 -246.5,-99.1L-253.4,-99.4L-260.7,-99.2L-268.8,-98.5L-269.2,-104L-261,-104.7L-260.8,-104.7L-253.4,-104.9L-253.2,-104.9L-246.2,-104.6C-245.6,-104.6 -245.1,-104.5 -244.5,-104.4C-244.2,-104.4 -244,-104.3 -243.7,-104.3L-239.1,-103.8L-239,-103.8C-232.1,-102.7 -226,-101 -220.4,-98.8C-214.6,-96.4 -209,-93.1 -203.7,-88.9C-198.9,-85.1 -194.4,-80.5 -190.2,-75.1C-182.2,-64.8 -176.1,-53 -170.8,-42.6L-170.2,-41.4C-167.6,-36.3 -165,-31.1 -162.1,-26.1C-161.2,-24.6 -160.4,-23.1 -159.5,-21.7C-161.7,-21.8 -163.9,-21.9 -166,-21.9Z" style="fill:rgb(1,105,56);fill-rule:nonzero;"/>
                <path d="M-178,-21.4C-178.6,-21.3 -179.2,-21.3 -179.8,-21.2C-182,-25.2 -184,-29.2 -186,-33L-186.7,-34.4C-192.4,-45.7 -197.7,-55.8 -204.2,-64C-210.9,-72.6 -218.4,-78.6 -227.1,-82.1C-231.4,-83.8 -236.1,-85.1 -241.5,-86L-245.4,-86.4C-245.7,-86.4 -245.9,-86.5 -246.2,-86.5C-246.6,-86.5 -246.9,-86.6 -247.3,-86.6L-253.4,-86.8L-259.9,-86.6L-267.3,-86L-267.7,-91.5L-260.2,-92.1L-260,-92.1L-253.3,-92.3L-253.1,-92.3L-246.9,-92.1C-246.4,-92.1 -245.9,-92 -245.4,-92C-245.2,-92 -245,-91.9 -244.7,-91.9L-240.7,-91.5L-240.6,-91.5C-234.7,-90.5 -229.6,-89.2 -224.9,-87.3C-215.4,-83.4 -207,-76.7 -199.7,-67.5C-192.9,-58.9 -187.5,-48.6 -181.6,-37L-180.9,-35.6C-178.6,-31.1 -176.2,-26.4 -173.6,-21.8C-175.2,-21.6 -176.6,-21.5 -178,-21.4Z" style="fill:rgb(1,105,56);fill-rule:nonzero;"/>
            </g>
            <g>
                <path d="M-184.2,48.1C-180.1,43.1 -176.6,38.4 -173.7,33.5C-170.5,28.3 -168.1,23.2 -166.3,18C-164.4,18 -162.5,18.1 -160.6,18.2C-162.6,24.3 -165.3,30.2 -169,36.3C-172.1,41.4 -175.7,46.4 -180,51.6C-188,61.1 -197.1,69.5 -207.2,76.6C-210,78.5 -212.7,80.3 -215.5,81.9L-218.3,77.1C-215.7,75.6 -213,73.9 -210.4,72C-200.6,65.3 -191.8,57.2 -184.2,48.1Z" style="fill:rgb(1,105,56);fill-rule:nonzero;"/>
                <path d="M-193.7,40.1C-190,35.6 -186.9,31.4 -184.3,27.1C-182.7,24.4 -181.3,21.8 -180.1,19.1C-178.1,18.7 -176.2,18.5 -174.2,18.3L-173.7,18.3C-175.2,22.2 -177.2,26.1 -179.5,30C-182.2,34.6 -185.5,39 -189.4,43.7C-196.7,52.4 -205,60 -214.1,66.5C-217.3,68.7 -220.5,70.7 -223.7,72.5L-226.3,67.7C-223.3,66.1 -220.2,64.1 -217.2,62C-208.6,55.7 -200.6,48.4 -193.7,40.1Z" style="fill:rgb(1,105,56);fill-rule:nonzero;"/>
                <path d="M-203.2,32.2C-201,29.6 -199.1,27 -197.3,24.5C-197.1,24.4 -196.9,24.3 -196.7,24.2C-196.1,23.9 -195.4,23.6 -194.9,23.4L-191.1,22C-190.3,21.7 -189.6,21.5 -188.8,21.3C-189.2,22.1 -189.7,22.8 -190.1,23.6C-192.5,27.6 -195.4,31.7 -198.9,35.8C-205.4,43.5 -213.1,50.6 -221.2,56.4C-224,58.4 -226.9,60.1 -229.6,61.7L-232.3,56.9C-229.7,55.5 -227,53.8 -224.4,51.9C-216.7,46.3 -209.3,39.5 -203.2,32.2Z" style="fill:rgb(1,105,56);fill-rule:nonzero;"/>
            </g>
            <g>
                <path d="M131.1,130.6L130.6,129.2C129.9,127.1 129.2,125.2 128.4,123.4C128.4,123.4 128.4,123.3 128.3,123.3C125.6,117.1 122.4,112 118.7,107.5C114.9,102.9 110.2,98.6 104.8,94.6C94.3,86.8 81.8,80.9 67.7,74.5L66,73.7C59.7,70.8 53.2,67.8 46.7,64.5C38.2,60.2 31.3,56.1 25.2,51.8C18.4,47 12.4,41.6 7.4,35.8C7.5,35.5 7.6,35.2 7.7,34.9C8.3,33.2 8.9,31.5 9.5,29.8C9.6,29.9 9.7,30 9.8,30.2C14.8,36.5 21.1,42.2 28.3,47.3C34.2,51.5 40.8,55.4 49.1,59.6C55.5,62.9 62,65.8 68.2,68.7L70,69.5C84.4,76 97.2,82.1 108.1,90.2C113.8,94.4 118.8,99.1 122.9,104C127,108.8 130.4,114.4 133.3,121C134.3,123.1 135.1,125.3 135.8,127.4L136.3,128.7L131.1,130.6Z" style="fill:rgb(1,105,56);fill-rule:nonzero;"/>
                <path d="M143.3,127.9C143,127.1 142.8,126.3 142.5,125.6C141.7,123.1 140.8,120.7 139.8,118.5L139.8,118.4C136.7,111.3 132.8,105 128.4,99.7C123.9,94.3 118.5,89.3 112.3,84.7C99.8,75.6 85.5,69 72.9,63.2L70.2,62C57.4,56.1 44.2,50.1 32.4,41.7C25.6,37 19.9,31.6 15.2,25.8C14.1,24.5 13.1,23.1 12.2,21.8C12.9,19.4 13.5,17.1 14.1,14.7C15.7,17.4 17.5,20 19.5,22.4C23.8,27.8 29.3,32.8 35.6,37.3C47,45.4 59.9,51.3 72.5,57.1L75.2,58.3C88.1,64.2 102.7,70.9 115.5,80.3C122.1,85.1 127.8,90.5 132.5,96.2C137.3,101.8 141.4,108.5 144.7,116.1C145.9,118.6 146.8,121.2 147.7,123.8C148,124.6 148.2,125.3 148.5,126.1L143.3,127.9Z" style="fill:rgb(1,105,56);fill-rule:nonzero;"/>
                <path d="M155.3,124.8C155,123.8 154.6,122.9 154.3,121.9C153.3,118.9 152.3,116.1 151,113.3C147.4,105.1 143,97.9 137.8,91.7C132.7,85.5 126.5,79.8 119.5,74.6C113.6,70.3 106.9,66.1 98.9,61.9C92.2,58.4 85.4,55.2 78.8,52.2L76.6,51.2C63.1,45 50.3,39.2 39.5,31.5C33.7,27.4 28.7,22.8 24.7,17.9C21.4,13.8 18.6,9.2 16.2,4.4C16.9,0.7 17.5,-2.5 17.9,-6C21.6,3.8 24.5,9 28.9,14.4C32.5,18.9 37.1,23.1 42.6,27C53.1,34.6 65.7,40.3 79,46.4L81.2,47.4C87.8,50.4 94.7,53.6 101.5,57.2C109.7,61.5 116.7,65.8 122.8,70.3C130.2,75.7 136.7,81.8 142,88.3C147.5,94.8 152.2,102.5 156,111.1C157.4,114.1 158.5,117.2 159.5,120.2C159.8,121.2 160.1,122.1 160.5,123.1L155.3,124.8Z" style="fill:rgb(1,105,56);fill-rule:nonzero;"/>
            </g>
            <g>
                <g>
                    <path d="M245.2,-24.9C246.1,-25.5 246.9,-26 247.8,-26.5C248.5,-26.9 249.1,-27.3 249.7,-27.7L250.8,-28.3C251.5,-28.1 252.3,-27.9 253,-27.7C256.6,-26.8 260,-26 263.2,-25.4C265.9,-24.9 268.3,-24.5 270.5,-24.3L269.9,-18.8C267.5,-19.1 265,-19.4 262.2,-20C258.9,-20.6 255.3,-21.4 251.6,-22.4C249.3,-23 246.9,-23.7 244.5,-24.4L245.2,-24.9Z" style="fill:rgb(1,105,56);fill-rule:nonzero;"/>
                    <path d="M205.4,-42.6C204.8,-41.9 204.3,-41.3 203.8,-40.7C202.7,-41.3 201.5,-41.9 200.4,-42.5C194.7,-45.6 190,-48.5 186.1,-51.4C187.7,-52.3 189.3,-53.1 190.8,-54C191,-54.1 191.2,-54.2 191.5,-54.4C194.8,-52.2 198.6,-49.9 203,-47.4C204.5,-46.6 206,-45.8 207.6,-45L205.4,-42.6Z" style="fill:rgb(1,105,56);fill-rule:nonzero;"/>
                </g>
                <g>
                    <path d="M197.3,-32.1C197.1,-31.8 196.9,-31.5 196.7,-31.2C196.6,-31 196.5,-30.8 196.3,-30.7C195.7,-31 195.1,-31.4 194.5,-31.7C188.9,-34.8 181.5,-39 174.8,-44.5C174.6,-44.7 174.4,-44.9 174.1,-45.1C175.9,-46 177.7,-47 179.4,-47.9C185.4,-43.1 192,-39.3 197.1,-36.5C197.9,-36.1 198.6,-35.7 199.4,-35.3L197.3,-32.1Z" style="fill:rgb(1,105,56);fill-rule:nonzero;"/>
                    <path d="M234.2,-14.9C234.5,-15.2 234.7,-15.6 234.9,-15.7L238,-19C238.1,-19.1 238.1,-19.1 238.2,-19.2C238.5,-19.1 238.8,-19 239.1,-18.9C242.7,-17.7 246.4,-16.7 250,-15.7C253.9,-14.7 257.5,-13.9 261,-13.2C264.9,-12.5 268.4,-12 271.6,-11.7L271.2,-6.2C267.8,-6.5 264.2,-7 260,-7.7C256.3,-8.4 252.6,-9.2 248.6,-10.3C244.9,-11.3 241.1,-12.3 237.4,-13.5C236.3,-13.9 235.2,-14.2 234.1,-14.6C234.1,-14.8 234.1,-14.8 234.2,-14.9Z" style="fill:rgb(1,105,56);fill-rule:nonzero;"/>
                </g>
                <g>
                    <path d="M227.5,-5L229.5,-8.5C229.5,-8.6 229.6,-8.7 229.8,-8.9C231.6,-8.3 233.5,-7.7 235.3,-7.1C239.2,-5.9 243,-4.7 246.8,-3.8C251,-2.7 254.9,-1.8 258.7,-1.1C262.2,-0.5 265.2,-0 268.2,0.3L267.6,5.8C264.5,5.5 261.3,5 257.7,4.3C253.7,3.6 249.7,2.7 245.4,1.5C241.5,0.5 237.5,-0.7 233.6,-1.9C231.4,-2.6 229.3,-3.3 227.1,-4.1L227.5,-5Z" style="fill:rgb(1,105,56);fill-rule:nonzero;"/>
                    <path d="M191.6,-22.4L190.4,-19.8L190.4,-19.7C189.8,-20 189.2,-20.4 188.6,-20.7C182.1,-24.3 174.4,-28.8 166.9,-34.9C165.4,-36.2 163.8,-37.6 162.2,-39.1C164,-39.9 165.7,-40.7 167.5,-41.6C168.4,-40.8 169.4,-39.9 170.4,-39.1C177.5,-33.3 184.6,-29.1 191.2,-25.5C191.8,-25.2 192.3,-24.9 192.9,-24.6L191.6,-22.4Z" style="fill:rgb(1,105,56);fill-rule:nonzero;"/>
                </g>
            </g>
            <g>
                <g>
                    <path d="M-96.7,142.5C-96.6,142.2 -96.5,141.9 -96.4,141.7L-95.2,138.8C-92.2,131.1 -90.3,122.8 -89.6,114C-87.7,113.9 -85.8,113.8 -84.1,113.8L-84.1,114.4C-84.8,123.7 -86.8,132.5 -90,140.8L-91.2,143.8C-91.3,144.1 -91.4,144.3 -91.5,144.6C-91.8,145.4 -92.2,146.2 -92.6,146.9L-93.6,148.8L-98.5,146.3L-97.5,144.4C-97.2,143.8 -97,143.2 -96.7,142.5Z" style="fill:rgb(1,105,56);fill-rule:nonzero;"/>
                    <path d="M-91.6,43.6C-90.8,49.6 -89.8,55.6 -88.7,62C-88,66 -87.3,70 -86.7,74.1C-88.5,74.1 -90.3,74.2 -92.2,74.3C-92.8,70.5 -93.5,66.7 -94.1,62.9C-95.2,56.5 -96.3,50.4 -97.1,44.3C-99.4,27.6 -99.2,14.3 -96.6,2.4C-94.4,-8.2 -89.7,-18.5 -82.8,-28.4L-81.1,-28.3C-79.9,-28.2 -78.7,-28.3 -77.6,-28.3L-75.9,-28.3C-83.7,-18 -88.8,-7.3 -91.1,3.7C-93.6,14.8 -93.8,27.5 -91.6,43.6Z" style="fill:rgb(1,105,56);fill-rule:nonzero;"/>
                </g>
                <g>
                    <path d="M-108.7,139.1C-108.5,138.7 -108.3,138.2 -108,137.6C-107.9,137.3 -107.8,137.1 -107.7,136.9L-106.7,134.4C-104.4,128.6 -102.9,122.2 -102.2,115.6L-99.4,115.1L-97.9,114.9C-97.5,114.8 -97,114.8 -96.6,114.7C-97.3,122.4 -99,129.7 -101.6,136.5L-102.7,139.1C-102.8,139.3 -102.9,139.5 -103,139.8C-103.3,140.4 -103.5,141.1 -103.9,141.9L-105.4,144.9L-110.3,142.4L-108.7,139.1Z" style="fill:rgb(1,105,56);fill-rule:nonzero;"/>
                    <path d="M-105.5,22.9C-105.5,29.6 -105,36.9 -103.9,45.2C-103,51.6 -101.9,58.1 -100.8,64.3C-100.2,67.7 -99.6,71.2 -99,74.8C-100.5,75 -102,75.2 -103.6,75.4L-104.5,75.5C-105.1,72.1 -105.6,68.6 -106.2,65.3C-107.3,59 -108.4,52.5 -109.3,46C-110.5,37.5 -111,30 -111,23C-111,14.9 -110.2,7.1 -108.6,-0.1C-106.5,-10.2 -102.3,-20.3 -96.4,-29.9C-96,-29.8 -95.6,-29.7 -95.2,-29.6L-94.9,-29.5C-93.8,-29.3 -92.7,-29.2 -91.6,-29L-90.5,-28.8C-96.7,-19.2 -101,-9 -103.2,1.2C-104.7,7.8 -105.5,15.2 -105.5,22.9Z" style="fill:rgb(1,105,56);fill-rule:nonzero;"/>
                </g>
                <g>
                    <path d="M-104.8,-29.3C-105.5,-28 -106.3,-26.8 -106.8,-25.5C-106.8,-25.5 -106.8,-25.4 -106.9,-25.4C-110.6,-18.3 -113.4,-10.4 -115.3,-1.8C-117,5.9 -117.9,14.2 -117.9,22.8C-117.9,30.1 -117.3,37.9 -116.1,46.8C-115.2,53.6 -114,60.3 -112.9,66.7C-112.3,70.1 -111.8,73.4 -111.2,76.7L-112.4,76.9C-113.8,77.2 -115.2,77.6 -116.6,77.9C-117.1,74.5 -117.7,71.1 -118.3,67.6C-119.4,61.1 -120.6,54.4 -121.5,47.5C-122.7,38.4 -123.3,30.4 -123.3,22.8C-123.3,13.8 -122.4,5.1 -120.6,-3C-118.6,-12 -115.6,-20.3 -111.8,-27.8C-111.1,-29.3 -110.3,-30.7 -109.5,-32C-109.3,-32.4 -109,-32.8 -108.8,-33.3C-107.1,-32.7 -105.3,-32.2 -103.4,-31.7L-103.9,-30.9C-104.2,-30.4 -104.5,-29.8 -104.8,-29.3Z" style="fill:rgb(1,105,56);fill-rule:nonzero;"/>
                    <path d="M-119.9,133.7C-119.7,133.4 -119.6,133 -119.4,132.6C-119.3,132.4 -119.2,132.1 -119.1,131.9L-118.2,129.8C-116.9,126.5 -115.9,123 -115.2,119.3L-114.3,118.9C-113.4,118.6 -112.5,118.3 -111.5,117.9C-110.8,117.7 -110.1,117.4 -109.4,117.2C-110.2,122.3 -111.4,127.2 -113.2,131.8L-114.1,134C-114.2,134.2 -114.3,134.4 -114.3,134.6C-114.5,135.1 -114.8,135.7 -115.1,136.4L-117.2,140.4L-122.1,137.9L-120,133.8C-119.9,133.8 -119.9,133.8 -119.9,133.7Z" style="fill:rgb(1,105,56);fill-rule:nonzero;"/>
                </g>
            </g>
            <g>
                <g>
                    <path d="M-52.9,149.3C-51.2,136.9 -48,124.7 -43.4,113C-41.2,107.2 -38.5,101.6 -35.7,96.2C-34.2,97.4 -32.7,98.6 -31.3,99.7C-33.8,104.7 -36.2,109.8 -38.2,115C-42.7,126.2 -45.8,138 -47.4,150.1C-47.8,152.3 -48,154.5 -48.2,156.8C-48.3,157.9 -48.4,159.1 -48.5,160.2L-54,159.6C-53.9,158.5 -53.8,157.4 -53.7,156.3C-53.5,154 -53.3,151.6 -52.9,149.3Z" style="fill:rgb(1,105,56);fill-rule:nonzero;"/>
                </g>
                <g>
                    <path d="M-65.2,147.6C-63.4,134.2 -59.9,121 -54.9,108.5C-52.2,101.5 -49,94.8 -45.6,88.3C-44.1,89.5 -42.7,90.7 -41.2,91.8C-44.3,97.8 -47.2,104 -49.8,110.5C-54.6,122.6 -58,135.4 -59.8,148.4C-60.2,150.8 -60.4,153.2 -60.7,155.7C-60.8,156.9 -60.9,158 -61.1,159.2L-66.6,158.6C-66.5,157.5 -66.4,156.3 -66.3,155.2C-65.8,152.7 -65.6,150.1 -65.2,147.6Z" style="fill:rgb(1,105,56);fill-rule:nonzero;"/>
                </g>
                <g>
                    <path d="M-77.4,145.9C-75.4,131.5 -71.7,117.4 -66.4,104C-63.1,95.6 -59.2,87.6 -55.2,80.1C-53.8,81.4 -52.4,82.6 -51,83.9C-54.7,90.9 -58.3,98.3 -61.3,106.1C-66.5,119.2 -70.1,132.8 -72,146.8C-72.4,149.4 -72.7,152.1 -72.9,154.8L-73.1,156.5L-78.6,156L-78.4,154.3C-78.1,151.4 -77.9,148.6 -77.4,145.9Z" style="fill:rgb(1,105,56);fill-rule:nonzero;"/>
                </g>
            </g>
            <g>
                <g>
                    <path d="M5.6,130.9C5.7,130.8 5.8,130.6 5.9,130.5C7,133.5 7.8,136.5 8.4,139.6C8.6,140.2 8.7,140.8 8.7,141.4C8.7,141.6 8.8,141.8 8.8,142L9.5,146.4L9.5,146.6L9.7,148.9C9.7,149.5 9.8,150.1 9.8,150.7C9.9,151.6 9.9,152.6 10,153.5L10,160.8L9.5,168.3L4,167.9L4.5,160.5L4.5,153.7C4.5,152.8 4.4,152 4.3,151.1C4.3,150.5 4.2,149.9 4.2,149.3L4,147L3.4,142.7C3.4,142.5 3.3,142.2 3.3,142C3.2,141.6 3.2,141.2 3.1,140.9C3.1,140.8 3.1,140.7 3,140.7C2.8,139.7 2.6,138.7 2.3,137.7C3.3,135.3 4.4,133.1 5.6,130.9Z" style="fill:rgb(1,105,56);fill-rule:nonzero;"/>
                    <path d="M-73.6,32.2C-72.2,37.8 -70.2,43.3 -67.6,48.2C-64.2,54.6 -59.6,60.9 -53.9,67C-48.5,72.6 -42.9,77.4 -37.6,81.6C-35.5,83.3 -33.4,85 -31.4,86.6C-28,89.3 -24.8,91.8 -21.7,94.5C-20.8,95.2 -20,95.9 -19.2,96.6C-20.4,98.1 -21.5,99.6 -22.5,101C-23.4,100.2 -24.3,99.5 -25.2,98.7C-28.3,96.1 -31.5,93.6 -34.8,90.9C-36.9,89.3 -39,87.6 -41.1,85.9C-46.5,81.5 -52.3,76.6 -57.9,70.8C-64,64.4 -68.9,57.7 -72.5,50.8C-75.4,45.2 -77.7,39 -79.2,32.6C-77.3,32.4 -75.5,32.3 -73.6,32.2Z" style="fill:rgb(1,105,56);fill-rule:nonzero;"/>
                </g>
                <g>
                    <path d="M14.3,118.4C17.2,124.4 19.3,130.7 20.5,137.1C20.7,137.8 20.8,138.5 20.9,139.1C20.9,139.3 21,139.6 21,139.8L21.8,144.9L21.8,145.1L22,147.7C22,148.3 22.1,148.9 22.1,149.5C22.2,150.6 22.3,151.8 22.3,152.9L22.3,161.1L22,165.8L16.5,165.4L16.8,160.7L16.8,153C16.8,151.9 16.7,150.9 16.6,149.8C16.6,149.2 16.5,148.6 16.5,148L16.3,145.5L15.6,140.5C15.6,140.2 15.5,140 15.5,139.7C15.4,139.2 15.4,138.7 15.2,138.2L15.2,138C14.2,133 12.7,128 10.6,123.2C11.6,121.8 12.9,120.2 14.3,118.4Z" style="fill:rgb(1,105,56);fill-rule:nonzero;"/>
                    <path d="M-63,30.3L-61.6,30L-61.5,30C-60.4,34.4 -58.8,38.5 -56.7,42.4C-53.9,47.8 -49.9,53.2 -45,58.4C-38.5,65.1 -31,71 -23.7,76.7C-20.4,79.3 -17,82.1 -13.6,84.8C-12.8,85.5 -12,86.1 -11.3,86.8C-12.5,88.2 -13.6,89.6 -14.8,91C-15.6,90.3 -16.3,89.7 -17.1,89C-20.3,86.3 -23.7,83.6 -27,81C-34.4,75.1 -42,69.1 -48.7,62.1C-54,56.5 -58.3,50.7 -61.3,44.9C-63.6,40.6 -65.3,36 -66.6,31.2C-65.5,30.9 -64.2,30.6 -63,30.3Z" style="fill:rgb(1,105,56);fill-rule:nonzero;"/>
                </g>
                <g>
                    <path d="M22.2,108.9C22.4,108.6 22.6,108.4 22.9,108.1C23.5,109.2 24.1,110.3 24.6,111.3C28.4,118.8 31.1,126.6 32.6,134.6C32.8,135.4 32.9,136.2 33,136.9C33,137.2 33.1,137.4 33.1,137.7L34,143.5L34,143.7L34.2,146.6C34.2,147.2 34.3,147.8 34.3,148.4C34.4,149.8 34.5,151.1 34.6,152.5L34.6,161.6L34.4,164.6L28.9,164.2L29.1,161.3L29.1,152.7C29,151.4 29,150.1 28.9,148.9C28.9,148.3 28.8,147.7 28.8,147.1L28.6,144.3L27.8,138.6C27.8,138.3 27.7,138 27.7,137.7C27.6,137.1 27.5,136.5 27.4,135.9L27.4,135.7C25.9,128.2 23.4,120.8 19.8,113.8C19.6,113.4 19.4,113 19.2,112.6C20.1,111.4 21.2,110.2 22.2,108.9Z" style="fill:rgb(1,105,56);fill-rule:nonzero;"/>
                    <path d="M-52.1,27C-51.3,26.7 -50.5,26.4 -49.7,26.1C-48.8,29.9 -47.5,33.4 -45.7,36.7C-43.4,41.1 -40.2,45.5 -36,49.9C-30.4,55.8 -23.5,61.3 -16.2,67.1C-12.8,69.8 -9.3,72.6 -5.8,75.5C-5,76.2 -4.2,76.9 -3.4,77.5C-4.5,78.9 -5.7,80.3 -6.9,81.7C-7.7,81 -8.5,80.4 -9.3,79.7C-12.7,76.8 -16.2,74.1 -19.6,71.4C-27.1,65.5 -34.1,59.8 -40,53.7C-44.6,48.9 -48.1,44.2 -50.6,39.3C-52.4,35.8 -53.8,32.1 -54.9,28.1C-53.9,27.7 -53,27.4 -52.1,27Z" style="fill:rgb(1,105,56);fill-rule:nonzero;"/>
                </g>
            </g>
            <g>
                <path d="M-202.8,-52.3C-209.3,-50.5 -216,-48.7 -222.9,-47.2C-231.4,-45.3 -238.5,-44.1 -245.3,-43.4C-253.4,-42.6 -261.5,-42.5 -269.2,-43.3C-271.8,-43.6 -274.6,-44 -277.4,-44.5L-276.4,-49.9C-273.7,-49.4 -271.1,-49 -268.7,-48.8C-261.3,-48.1 -253.7,-48.1 -245.9,-48.9C-239.3,-49.5 -232.4,-50.7 -224.1,-52.6C-217.6,-54.1 -211.3,-55.8 -205.2,-57.4L-204.7,-56.7C-204.1,-55.9 -203.5,-54.9 -202.9,-53.9C-202.6,-53.5 -202.3,-53 -202.1,-52.6L-202.8,-52.3Z" style="fill:rgb(1,105,56);fill-rule:nonzero;"/>
                <path d="M-128.8,-52L-128,-51.6C-121.9,-49 -115.5,-46.4 -108.8,-44C-100.4,-41.1 -93.3,-39.5 -86.3,-38.8L-80.1,-38.5C-77.9,-38.5 -76,-38.6 -74.2,-38.7C-70,-39 -66,-39.7 -62.1,-40.7C-52.3,-43.3 -45.9,-47.4 -38.7,-54.1C-37.9,-54.8 -37.2,-55.6 -36.4,-56.3C-37,-53 -37.7,-50 -38.4,-47C-44.9,-41.4 -51.4,-37.7 -60.7,-35.2C-64.8,-34.1 -69.2,-33.4 -73.7,-33C-75.6,-32.8 -77.5,-32.8 -79.8,-32.8L-80.3,-32.8L-86.6,-33.1L-86.7,-33.1C-94.1,-33.8 -101.7,-35.6 -110.5,-38.6C-117.4,-41 -123.9,-43.7 -130.1,-46.3L-130.9,-46.7C-136.5,-49.1 -143.1,-51.8 -149.3,-53.8C-152.8,-55 -155.9,-55.8 -158.8,-56.5C-159.5,-57.9 -160.2,-59.2 -161,-60.6C-161.4,-61.3 -161.8,-62 -162.1,-62.7C-157.9,-62 -153.3,-60.8 -147.6,-59C-141.2,-57.2 -134.5,-54.5 -128.8,-52Z" style="fill:rgb(1,105,56);fill-rule:nonzero;"/>
                <path d="M-225.7,-59.2C-242.2,-55.5 -255.6,-54.3 -268.1,-55.6C-271.3,-55.9 -274.6,-56.5 -278.2,-57.2L-277,-62.6C-273.6,-61.9 -270.5,-61.4 -267.5,-61.1C-255.7,-59.9 -242.8,-61 -226.9,-64.6C-222.6,-65.6 -218.3,-66.7 -214,-67.8C-212.5,-66.4 -211.1,-64.9 -209.7,-63.2C-215,-61.8 -220.3,-60.4 -225.7,-59.2Z" style="fill:rgb(1,105,56);fill-rule:nonzero;"/>
                <path d="M-34.4,-69.7L-34.4,-69.3C-42.4,-57.5 -51.4,-50.8 -63.8,-47.5C-70.7,-45.7 -78,-45.1 -85.5,-45.8C-91.9,-46.4 -98.6,-48 -106.4,-50.7C-112.8,-52.9 -119.1,-55.5 -125.2,-58.1C-131.7,-60.8 -138.5,-63.7 -145.3,-65.9C-153.2,-68.5 -159.3,-69.9 -165,-70.4L-165.2,-70.4C-165.5,-70.5 -165.8,-70.5 -166.2,-70.5C-166.7,-71.3 -167.2,-72.2 -167.7,-73L-167.8,-73.2C-168.2,-73.8 -168.6,-74.4 -169,-75C-169.2,-75.4 -169.5,-75.8 -169.7,-76.1L-167,-76C-166.2,-76 -165.3,-75.9 -164.4,-75.8C-158.2,-75.2 -151.8,-73.8 -143.5,-71.1C-136.5,-68.8 -129.6,-65.9 -123,-63.1C-117,-60.6 -110.8,-58 -104.5,-55.8C-97.1,-53.3 -90.8,-51.8 -84.8,-51.2C-77.9,-50.6 -71.3,-51.1 -65,-52.7C-55.1,-55.3 -42.8,-61.9 -33.8,-79.8C-33.5,-80.3 -33.3,-80.9 -33.1,-81.4C-33.6,-77.4 -34,-73.4 -34.4,-69.7Z" style="fill:rgb(1,105,56);fill-rule:nonzero;"/>
                <path d="M-266.8,-67.9C-269.8,-68.2 -272.9,-68.7 -276.4,-69.5L-275.2,-74.9C-271.9,-74.2 -269,-73.7 -266.3,-73.4C-255.9,-72.3 -244.2,-73.4 -229.7,-76.7C-229,-76.9 -228.3,-77 -227.7,-77.2C-225.7,-76.3 -223.8,-75.3 -222,-74.1C-221.6,-73.8 -221.1,-73.5 -220.7,-73.2C-223.3,-72.5 -225.9,-71.9 -228.5,-71.3C-243.5,-67.8 -255.7,-66.8 -266.8,-67.9Z" style="fill:rgb(1,105,56);fill-rule:nonzero;"/>
                <path d="M-79.8,-57.9L-80.2,-57.9C-81.6,-58 -82.9,-58 -84.3,-58.1L-84.5,-58.1C-89.9,-58.6 -95.8,-60 -102.6,-62.3C-108.3,-64.2 -114.1,-66.7 -120.2,-69.2C-127,-72.1 -134.1,-75 -141.7,-77.6C-144.7,-78.6 -148.1,-79.6 -152.5,-80.7L-158.2,-81.9L-164.2,-82.7C-165,-82.8 -165.8,-82.9 -166.8,-82.9L-170,-83L-171.1,-83C-171.7,-83 -172.3,-83.1 -172.9,-83L-174.8,-83L-176.7,-85.5C-177.4,-86.4 -178.1,-87.3 -178.9,-88.2C-178.1,-88.3 -177.3,-88.3 -176.5,-88.4C-175.7,-88.5 -174.9,-88.5 -174.1,-88.5L-169.8,-88.5L-166.5,-88.4C-165.5,-88.4 -164.4,-88.3 -163.4,-88.1L-157.4,-87.3L-157.2,-87.3L-151.4,-86.1L-151.3,-86.1C-146.7,-85 -143.1,-83.9 -140,-82.9C-132.2,-80.3 -125.1,-77.3 -118.1,-74.4C-112.1,-71.9 -106.4,-69.5 -100.9,-67.6C-94.5,-65.4 -89.1,-64.1 -84.1,-63.6C-82.8,-63.5 -81.4,-63.5 -80.1,-63.4C-56.8,-63.3 -40,-80.6 -40,-112.4L-40,-169.5L-34.5,-169.5L-34.5,-112.4C-34.4,-77.5 -53.1,-57.9 -79.8,-57.9Z" style="fill:rgb(1,105,56);fill-rule:nonzero;"/>
            </g>
            <g>
                <path d="M-231.3,34.3C-230.4,33.5 -229.4,32.6 -228.5,31.9L-223.3,27.8L-223.2,27.7L-220,25.5C-217.9,23.9 -215.6,22.5 -213.5,21.2C-212.7,20.7 -211.9,20.2 -211.1,19.7C-211.1,19.7 -211,19.7 -211,19.6C-204.5,16 -198.1,13.2 -191.9,11.3C-185.3,9.2 -178.5,8 -171.6,7.7C-165,7.3 -158.2,7.7 -150.6,8.9C-142.9,10.1 -135.4,11.9 -129,13.5C-128.6,13.6 -128.3,13.7 -127.9,13.8C-128,15.6 -128.1,17.5 -128.2,19.4C-128.9,19.2 -129.7,19 -130.4,18.8C-136.6,17.2 -144,15.4 -151.4,14.3C-158.6,13.2 -165.1,12.8 -171.3,13.2C-177.7,13.5 -184.1,14.7 -190.2,16.6C-196,18.4 -202.1,21.1 -208.2,24.5C-209,25 -209.8,25.5 -210.6,26C-212.7,27.3 -214.8,28.5 -216.8,30L-220,32.2L-225.2,36.3C-226,36.9 -226.9,37.6 -227.7,38.4C-228.1,38.8 -228.5,39.1 -228.9,39.5L-230.2,40.6L-233.8,36.5L-232.5,35.3C-232,35 -231.7,34.7 -231.3,34.3Z" style="fill:rgb(1,105,56);fill-rule:nonzero;"/>
                <path d="M-81.5,22.2L-78.8,22.2L-74.7,21.9C-74.1,21.9 -73.4,21.8 -72.6,21.7C-72.2,21.6 -71.8,21.6 -71.5,21.5C-71.1,21.4 -70.7,21.4 -70.3,21.3C-69.6,21.2 -68.9,21.1 -68.2,21L-63.1,19.8L-61.6,19.4C-60.4,19 -59.5,18.8 -58.6,18.5C-57.6,18.2 -56.6,17.8 -55.6,17.4C-51.3,15.8 -47.3,13.9 -43.7,11.7C-39.8,9.4 -36.1,6.5 -32.9,3.3C-29,-0.5 -24.9,-6.1 -21.3,-12.3C-21.7,-9.1 -22.2,-5.9 -22.8,-2.8C-23,-1.6 -23.3,-0.4 -23.6,0.9C-25.3,3.1 -27.1,5.2 -29.2,7.3C-32.8,10.8 -36.7,14 -41,16.5C-44.9,18.8 -49.2,20.9 -53.8,22.6C-54.9,23 -56,23.4 -57,23.7C-58,24 -59,24.3 -60.2,24.7L-61.8,25.2L-61.9,25.2L-67.1,26.4C-68,26.6 -68.8,26.7 -69.6,26.8C-70,26.9 -70.3,26.9 -70.8,27C-71.2,27 -71.5,27.1 -71.9,27.2C-72.7,27.3 -73.6,27.5 -74.4,27.5L-78.4,27.8C-78.8,27.8 -79.3,27.9 -79.7,27.9L-81.5,27.9C-83.7,27.9 -85.9,27.8 -88.1,27.7C-88.2,25.8 -88.2,23.9 -88.2,22.2C-86,22.1 -83.8,22.2 -81.5,22.2Z" style="fill:rgb(1,105,56);fill-rule:nonzero;"/>
                <path d="M-239.3,24.9C-238.3,24 -237.3,23.1 -236.2,22.3L-230.5,17.8L-230.4,17.7L-226.9,15.3C-224.5,13.5 -221.9,11.9 -219.4,10.4C-218.6,9.9 -217.8,9.4 -217,8.9C-217,8.9 -216.9,8.9 -216.9,8.8C-209.6,4.7 -202.4,1.6 -195.3,-0.6C-187.8,-3 -179.9,-4.4 -172,-4.8C-164.6,-5.2 -156.9,-4.8 -148.5,-3.5C-141,-2.4 -133.5,-0.6 -126.2,1.2C-126.5,3 -126.8,4.8 -127,6.7C-134.3,4.8 -141.8,3.1 -149.3,1.9C-157.3,0.7 -164.6,0.3 -171.7,0.7C-179.1,1.1 -186.5,2.4 -193.6,4.6C-200.3,6.7 -207.2,9.7 -214.1,13.5C-214.9,14 -215.7,14.5 -216.5,15C-219,16.5 -221.3,17.9 -223.6,19.6L-227.1,22L-232.7,26.4C-233.6,27.1 -234.5,27.9 -235.5,28.7C-235.9,29.1 -236.3,29.5 -236.8,29.8L-240.9,33.4L-244.5,29.3L-240.3,25.7C-240.1,25.6 -239.7,25.3 -239.3,24.9Z" style="fill:rgb(1,105,56);fill-rule:nonzero;"/>
                <path d="M-19.9,-38L-20,-32.9C-23.2,-20.9 -29.9,-8.7 -37.6,-1.5C-43.2,3.8 -50.1,7.9 -58,10.9C-58.9,11.3 -59.9,11.6 -60.8,11.9C-61.6,12.2 -62.5,12.5 -63.7,12.8L-65.1,13.2L-65.3,13.2L-69.5,14.2C-70.2,14.4 -70.9,14.5 -71.6,14.6C-71.9,14.6 -72.2,14.7 -72.5,14.7L-72.6,14.7C-72.9,14.7 -73.2,14.8 -73.5,14.8C-74.2,14.9 -74.9,15 -75.6,15L-79,15.2C-79.4,15.2 -79.7,15.3 -80.1,15.3L-81.5,15.3C-83.6,15.3 -85.8,15.2 -88,15C-87.8,13.2 -87.6,11.3 -87.3,9.5C-85.3,9.6 -83.4,9.7 -81.6,9.7L-78.9,9.7L-76,9.5C-75.5,9.5 -75,9.4 -74.4,9.3C-74.1,9.2 -73.7,9.2 -73.4,9.1C-73.1,9 -72.7,9 -72.4,9C-71.8,8.9 -71.3,8.9 -70.8,8.7L-66.7,7.7L-65.4,7.3C-64.3,7 -63.5,6.7 -62.8,6.5L-62.7,6.5C-61.8,6.2 -61,5.9 -60.1,5.6C-52.7,3 -46.4,-0.7 -41.4,-5.5C-30.4,-15.9 -24.2,-33.8 -19.9,-51.1L-19.9,-38Z" style="fill:rgb(1,105,56);fill-rule:nonzero;"/>
                <path d="M-147.7,-10.1C-156.4,-11.4 -164.8,-11.9 -172.6,-11.5C-181,-11 -189.4,-9.5 -197.5,-7C-205,-4.7 -212.8,-1.3 -220.5,3C-221.3,3.5 -222,3.9 -222.8,4.4C-225.5,6.1 -228.3,7.8 -230.9,9.7L-234.7,12.4L-240.8,17.2C-241.8,18 -242.8,18.8 -243.8,19.7C-244.2,20.1 -244.7,20.5 -245.1,20.8L-247.5,22.9L-251.1,18.8L-248.6,16.6C-248.2,16.2 -247.7,15.9 -247.3,15.5C-246.2,14.6 -245.2,13.6 -244,12.7L-238,8L-237.9,7.9L-234.1,5.2C-231.4,3.2 -228.5,1.4 -225.6,-0.3C-224.8,-0.8 -224,-1.2 -223.3,-1.7C-223.3,-1.7 -223.2,-1.7 -223.2,-1.8C-215.2,-6.3 -207.1,-9.9 -199.1,-12.3C-190.6,-15 -181.8,-16.5 -172.8,-17C-164.7,-17.4 -155.9,-17 -146.8,-15.6C-138.7,-14.4 -131,-12.6 -123.6,-10.7C-124.1,-8.9 -124.6,-7.2 -125,-5.4C-132.3,-7.2 -139.9,-8.9 -147.7,-10.1Z" style="fill:rgb(1,105,56);fill-rule:nonzero;"/>
                <path d="M-28.1,-46.1C-28.2,-45.6 -28.3,-45.2 -28.5,-44.7C-28.8,-43.5 -29.1,-42.2 -29.5,-41L-30.2,-38.5L-30.2,-38.4L-31,-36C-31.4,-34.8 -31.8,-33.7 -32.2,-32.6C-32.4,-32.1 -32.6,-31.6 -32.8,-31C-33,-30.5 -33.2,-30 -33.4,-29.5C-33.5,-29.2 -33.6,-28.9 -33.8,-28.7C-34.2,-27.8 -34.6,-27 -34.9,-26.3C-37.9,-20 -41.7,-14.6 -46.1,-10.5C-50.5,-6.3 -55.9,-3.1 -62.4,-0.7C-63.2,-0.4 -64,-0.1 -64.7,0.1L-64.8,0.1C-65.7,0.4 -66.6,0.7 -67.3,0.9L-68.5,1.3L-68.7,1.3L-71.9,2C-72.5,2.1 -73.1,2.2 -73.6,2.3C-73.8,2.3 -74.1,2.4 -74.3,2.4L-74.4,2.4C-74.6,2.4 -74.9,2.5 -75.1,2.5C-75.6,2.6 -76.2,2.7 -76.8,2.7L-79.5,2.9L-81.7,2.9C-83.1,2.9 -84.6,2.9 -86.1,2.8C-85.6,0.9 -85.1,-0.9 -84.5,-2.6C-83.5,-2.6 -82.6,-2.5 -81.6,-2.5L-79.5,-2.5L-77.1,-2.6C-76.8,-2.6 -76.4,-2.7 -76,-2.7C-75.7,-2.7 -75.4,-2.8 -75.1,-2.8C-74.8,-2.8 -74.5,-2.9 -74.2,-2.9C-73.8,-2.9 -73.4,-3 -73.1,-3.1L-69.9,-3.8L-68.8,-4.1C-68.2,-4.3 -67.4,-4.5 -66.5,-4.8L-66.4,-4.8C-65.7,-5 -65,-5.3 -64.3,-5.5C-58.4,-7.7 -53.7,-10.5 -49.8,-14.2C-45.9,-17.9 -42.6,-22.6 -39.8,-28.5C-39.5,-29.1 -39.2,-29.7 -38.9,-30.5C-38.8,-30.8 -38.6,-31.1 -38.5,-31.4C-38.3,-31.8 -38.1,-32.3 -38,-32.7C-37.8,-33.2 -37.6,-33.8 -37.4,-34.3C-37,-35.3 -36.6,-36.3 -36.3,-37.4L-35.5,-39.8L-34.8,-42.3C-34.5,-43.4 -34.2,-44.6 -33.9,-45.8C-33.8,-46.3 -33.7,-46.8 -33.5,-47.2C-32,-53.5 -30.8,-60.3 -29.8,-68.1C-28.3,-80.9 -27.5,-94.9 -27.5,-112.2L-27.5,-169.2L-22,-169.2L-22,-112.2C-22,-94.7 -22.8,-80.5 -24.3,-67.4C-25.3,-59.6 -26.5,-52.6 -28.1,-46.1Z" style="fill:rgb(1,105,56);fill-rule:nonzero;"/>
            </g>
            <g>
                <path d="M-9.8,-169.5L-9.8,-26.6L-10.2,-19.5C-10.7,-13.5 -11.4,-7.2 -12.7,-0.9L-13.1,1.4C-13.2,1.9 -13.3,2.4 -13.4,2.9L-13.6,3.7C-13.7,4.2 -13.9,4.8 -14,5.3C-14.2,6.3 -14.4,7.2 -14.7,8.2L-15.9,12.6C-16.2,13.6 -16.5,14.6 -16.8,15.6C-17,16.1 -17.1,16.6 -17.3,17.2C-19.4,23.4 -21.6,29.2 -24.2,34.7C-26.3,39.2 -28.5,43.6 -30.9,48C-32.4,46.5 -33.7,45.1 -34.9,43.8C-32.9,40 -31,36.2 -29.3,32.4C-26.8,27 -24.6,21.5 -22.7,15.5C-22.5,14.9 -22.4,14.4 -22.2,13.9C-21.9,13 -21.6,12.1 -21.4,11.2L-20.2,6.8C-20,5.9 -19.8,5 -19.5,4.1C-19.4,3.5 -19.2,3 -19.1,2.4L-18.9,1.6C-18.8,1.2 -18.7,0.7 -18.6,0.3L-18.2,-2C-17,-8.1 -16.3,-14.3 -15.8,-20L-15.4,-26.9L-15.3,-33.9L-15.3,-169.5L-9.8,-169.5Z" style="fill:rgb(1,105,56);fill-rule:nonzero;"/>
                <path d="M-0.5,1.4L-1,3.9C-1.1,4.5 -1.2,5 -1.4,5.6L-1.6,6.5C-1.7,7 -1.8,7.6 -2,8.1C-2.2,9.2 -2.5,10.2 -2.8,11.4L-4.1,16.2C-4.4,17.3 -4.7,18.4 -5.1,19.4C-5.3,19.9 -5.5,20.5 -5.6,21.1C-7.8,27.7 -10.3,34 -13,39.9C-15.6,45.5 -18.5,51.1 -21.4,56.5C-22.5,55.6 -23.5,54.7 -24.5,53.8C-24.9,53.5 -25.3,53.1 -25.6,52.8C-22.9,47.8 -20.2,42.7 -17.9,37.5C-15.2,31.8 -12.8,25.6 -10.8,19.3C-10.6,18.7 -10.4,18.1 -10.2,17.6C-9.9,16.6 -9.6,15.6 -9.3,14.6L-8,9.8C-7.7,8.8 -7.5,7.8 -7.3,6.7C-7.2,6.1 -7,5.5 -6.9,5L-6.7,4.1L-5.9,0.1C-4.6,-6.3 -3.8,-13.2 -3.3,-19C-2.9,-25.1 -2.7,-31.5 -2.7,-38.7L-2.7,-169.4L2.8,-169.4L2.8,-38.7C2.8,-31.4 2.6,-24.8 2.2,-18.5C1.6,-12.6 0.9,-5.5 -0.5,1.4Z" style="fill:rgb(1,105,56);fill-rule:nonzero;"/>
                <path d="M15.1,-33.7L15,-25.8L15,-25.7L14.5,-17.7C13.9,-11.3 13.2,-3.8 11.6,3.7L11.1,6.4C11,7 10.8,7.6 10.7,8.2L10.5,9.1C10.4,9.7 10.2,10.2 10.1,10.8C9.8,12 9.6,13.2 9.2,14.4L7.8,19.6C7.5,20.8 7.1,22 6.7,23.1C6.5,23.7 6.3,24.3 6.1,24.9C3.8,31.9 1.1,38.7 -1.8,45.1C-4.9,51.8 -8.2,58.2 -11.7,64.4C-12.3,63.9 -12.9,63.5 -13.4,63C-14.3,62.3 -15.2,61.6 -16,60.9C-12.8,55 -9.6,49 -6.7,42.7C-3.9,36.6 -1.3,30 1,23.2C1.2,22.6 1.4,22 1.6,21.4C2,20.3 2.3,19.2 2.6,18.2L4,13.1C4.3,12 4.6,10.8 4.8,9.7C4.9,9.1 5,8.5 5.1,7.9L5.4,7C5.5,6.4 5.7,5.9 5.8,5.4L6.3,2.7C7.7,-4.6 8.5,-11.9 9,-18L9.5,-25.9L9.7,-33.8L9.7,-169.5L15.2,-169.5L15.2,-37C15.2,-35.9 15.2,-34.8 15.1,-33.7Z" style="fill:rgb(1,105,56);fill-rule:nonzero;"/>
            </g>
            <g>
                <path d="M70.2,93.7C71.1,89.9 72.2,86.2 73.4,82.5C75.1,83.3 76.8,84.1 78.4,84.9C77.4,88.3 76.4,91.7 75.6,95C74,101.4 73.1,107.3 72.6,113C71.7,124.5 72.5,136.9 75.2,149.9C75.6,152.2 76.2,154.5 76.7,156.7L71.3,158C70.8,155.8 70.2,153.4 69.8,151C67.1,137.5 66.2,124.5 67.2,112.6C67.6,106.5 68.6,100.3 70.2,93.7Z" style="fill:rgb(1,105,56);fill-rule:nonzero;"/>
                <path d="M58.2,90.7C59.3,86.1 60.7,81.6 62.1,77.2C63.3,77.7 64.4,78.3 65.6,78.8L65.8,78.9C66.3,79.1 66.7,79.3 67.2,79.5C65.9,83.6 64.7,87.8 63.6,92C61.9,99 60.8,105.5 60.3,111.9C59.3,124.5 60.2,138.1 63,152.3C63.5,155.1 64.2,157.9 64.8,160.6L65.4,162.9L60,164.2L59.5,161.9C58.8,159.1 58.2,156.3 57.6,153.4C54.6,138.7 53.7,124.7 54.8,111.5C55.3,104.8 56.4,98 58.2,90.7Z" style="fill:rgb(1,105,56);fill-rule:nonzero;"/>
                <path d="M51.7,-12C53.3,-10.3 54.9,-8.6 56.5,-6.9C59,-4.2 61.3,-1.5 63.4,1.2C65.8,4.4 67.7,7.4 69.2,10.2C72.5,16.3 74.7,23.2 75.7,30.7C76.1,33.6 76.3,36.7 76.2,39.8C74.3,38.9 72.4,38.1 70.7,37.2C70.6,35.2 70.5,33.3 70.2,31.4C69.2,24.6 67.3,18.3 64.3,12.7C62.9,10.1 61.1,7.4 58.9,4.4C56.9,1.9 54.7,-0.7 52.3,-3.3C50.7,-5 49.1,-6.7 47.5,-8.4C44.4,-11.7 41.1,-15 38.2,-18.6C29.2,-29.4 23.2,-41 19.8,-52.2L19.8,-68.1C24.8,-49.8 31.3,-35.2 42.4,-22.2C45.5,-18.5 48.6,-15.2 51.7,-12Z" style="fill:rgb(1,105,56);fill-rule:nonzero;"/>
                <path d="M46.2,87.8C47.5,82.3 49.1,77 50.8,71.9C52.5,72.7 54.1,73.5 55.8,74.3C54.3,79.1 52.8,84 51.6,89.1C49.8,96.7 48.5,104 48,111C46.9,124.8 47.8,139.5 50.9,154.8C51.4,157.5 52,160.2 52.7,162.9L47.4,164.2C46.7,161.4 46.1,158.7 45.6,155.9C42.4,140.1 41.4,124.9 42.6,110.6C43,103.3 44.3,95.6 46.2,87.8Z" style="fill:rgb(1,105,56);fill-rule:nonzero;"/>
                <path d="M47.7,1.6C50,4 52,6.3 53.9,8.8C55.9,11.5 57.4,13.8 58.7,16.2C59.9,18.6 61.1,21.2 61.9,24C62.7,26.3 63.3,29 63.8,32.5C63.9,33 63.9,33.4 64,33.9C61.9,32.9 59.9,31.8 58,30.8C57.6,28.8 57.2,27.2 56.7,25.7L56.7,25.6C56,23.2 54.9,20.8 53.9,18.8C52.8,16.8 51.4,14.7 49.6,12.3C47.8,10 45.9,7.8 43.8,5.5C42.3,3.9 40.8,2.3 39.2,0.7C28.6,-10.4 22.2,-19.6 19.8,-26C19.9,-28.4 19.9,-34 20,-36.8C25.3,-24.3 30,-17 43.1,-3.3C44.7,-1.6 46.3,0 47.7,1.6Z" style="fill:rgb(1,105,56);fill-rule:nonzero;"/>
                <path d="M88.7,42.1C88.6,43.2 88.6,44.4 88.5,45.5C86.7,44.7 84.9,43.8 83.2,43C83.2,42.6 83.3,42.2 83.3,41.9C83.4,37.8 83.2,33.7 82.7,29.9C82,25.4 81.2,21.7 80.1,18.2C79.1,14.8 77.6,11.2 75.5,7.1C73.8,3.9 71.7,0.6 69,-2.9C66.8,-5.7 64.3,-8.6 61.7,-11.4C60,-13.2 58.3,-15 56.7,-16.7C53.6,-20 50.6,-23.1 47.9,-26.3C43.4,-31.6 39.8,-36.6 37.1,-41.6C34.2,-46.8 31.7,-52.6 29.6,-58.8C27.8,-64.2 26.4,-70.3 25.1,-77.5C23.1,-89.5 22.1,-102.5 22.1,-117L22.1,-169.3L27.6,-169.3L27.6,-117C27.6,-102.8 28.5,-90.1 30.5,-78.4C31.7,-71.4 33.2,-65.6 34.8,-60.4C36.7,-54.5 39.1,-49.1 41.8,-44.2C44.4,-39.5 47.7,-34.8 52,-29.8C54.6,-26.7 57.5,-23.7 60.6,-20.5C62.2,-18.8 63.9,-17 65.7,-15.2C68.5,-12.2 71,-9.2 73.3,-6.3C76.1,-2.5 78.4,1 80.3,4.5C82.6,9 84.3,12.9 85.3,16.6C86.5,20.3 87.4,24.3 88.1,29.2C88.6,33.2 88.8,37.6 88.7,42.1Z" style="fill:rgb(1,105,56);fill-rule:nonzero;"/>
            </g>
            <g>
                <path d="M86.9,-35.2C88.3,-35 89.8,-34.9 91.1,-34.8C91.8,-34.8 92.4,-34.7 93.1,-34.7C94.4,-34.6 95.6,-34.5 96.8,-34.5L99.7,-34.4L102.5,-34.4C103.1,-34.4 103.7,-34.4 104.3,-34.5C105.6,-34.5 107,-34.6 108.3,-34.7C115.4,-35.2 123,-36.4 130.8,-38.5C137.6,-40.3 144.4,-42.7 151.8,-45.9C163.6,-50.9 174.6,-56.9 185.2,-62.7C186.8,-63.6 188.4,-64.4 190,-65.3C202.3,-72 214.4,-78.3 226.5,-82.7C239.5,-87.5 252.1,-89.6 264,-89.1C264.6,-89.1 265.2,-89 265.8,-89C266.8,-88.9 267.8,-88.9 268.9,-88.8L271.9,-88.4L271.2,-82.9L268.3,-83.3C267.4,-83.4 266.5,-83.5 265.5,-83.5C264.9,-83.5 264.2,-83.6 263.7,-83.6C252.7,-84.1 240.8,-82 228.5,-77.5C216.7,-73.2 204.9,-67 192.7,-60.4C191.1,-59.5 189.5,-58.7 187.9,-57.8C177.1,-52 166,-45.9 154,-40.8C146.4,-37.5 139.2,-35 132.2,-33.1C124.1,-30.9 116.1,-29.6 108.6,-29.1C107.2,-29 105.8,-29 104.4,-28.9C103.8,-28.9 103.2,-28.9 102.6,-28.8L99.5,-28.8L96.6,-28.9C95.3,-28.9 93.9,-29 92.6,-29.1C92,-29.1 91.3,-29.2 90.6,-29.2C89.1,-29.3 87.7,-29.5 86.2,-29.6L84.7,-29.8C67.8,-32 55.8,-37.6 48,-43.1L47.4,-44.1C46.6,-45.4 45.9,-46.6 45.3,-47.8L45.1,-48.1C44.5,-49.1 44,-50.2 43.4,-51.4C43.1,-51.9 42.9,-52.5 42.6,-53C42.4,-53.4 42.3,-53.8 42.1,-54.2C52.2,-45.1 65.3,-37.8 85.3,-35.2L86.9,-35.2Z" style="fill:rgb(1,105,56);fill-rule:nonzero;"/>
                <path d="M87.1,-47.6C93.8,-46.8 100.6,-46.5 107.5,-46.9C119.8,-47.7 132.7,-51.1 147,-57.2C158.2,-62 169.1,-67.9 179.7,-73.7L184.1,-76.1C197.3,-83.3 209.3,-89.6 222.3,-94.3C229.4,-96.9 236.3,-98.8 242.9,-99.9C250.1,-101.2 257.3,-101.7 264.4,-101.4C265,-101.4 265.7,-101.3 266.3,-101.3C267.5,-101.2 268.7,-101.2 270,-101L275.5,-100.3L274.8,-94.8L269.4,-95.5C268.3,-95.6 267.2,-95.7 266,-95.8C265.3,-95.8 264.7,-95.9 264.1,-95.9C257.4,-96.2 250.6,-95.7 243.8,-94.5C237.5,-93.4 230.9,-91.6 224.1,-89.1C211.5,-84.5 199.7,-78.3 186.7,-71.2L182.3,-68.8C171.6,-63 160.6,-56.9 149.1,-52.1C134.2,-45.7 120.7,-42.2 107.8,-41.4C100.6,-41 93.4,-41.2 86.4,-42.1C62.3,-45.3 47.6,-55.2 37.5,-68.5C36.6,-72.1 35.8,-75.8 35.1,-79.8C35,-80.5 34.9,-81.2 34.8,-81.9L34.8,-82C44.6,-64.1 60.8,-51.1 87.1,-47.6Z" style="fill:rgb(1,105,56);fill-rule:nonzero;"/>
                <path d="M270.6,-107.9C269.3,-108 267.9,-108.1 266.5,-108.2C265.8,-108.2 265.1,-108.3 264.5,-108.3C256.9,-108.6 249.2,-108.1 241.5,-106.7C234.5,-105.5 227.2,-103.5 219.7,-100.7C205.3,-95.4 192.2,-88.3 180.6,-82.1L176.6,-79.9C165.4,-73.8 154.9,-68.1 144.1,-63.4C130.5,-57.6 118.4,-54.4 106.9,-53.7C106,-53.6 105,-53.6 104.1,-53.6C103.5,-53.6 102.9,-53.6 102.4,-53.5L97.6,-53.5C96.6,-53.5 95.5,-53.6 94.5,-53.7C93.9,-53.7 93.4,-53.8 92.7,-53.8C91.7,-53.9 90.7,-54 89.7,-54.1C89.2,-54.2 88.6,-54.2 88,-54.3C81.6,-55.2 75.6,-56.7 70,-58.8C47.1,-68 34.5,-87.4 34.5,-111L34.5,-169.3L40,-169.3L40,-111C39.9,-90 50.4,-72.7 72,-64C77.1,-62 82.7,-60.6 88.6,-59.8C89.2,-59.7 89.7,-59.7 90.3,-59.6C91.3,-59.5 92.2,-59.4 93.1,-59.3C93.7,-59.3 94.3,-59.2 94.9,-59.2C95.9,-59.1 96.8,-59.1 97.7,-59.1L102.2,-59.1C102.8,-59.1 103.4,-59.1 104.1,-59.2C105,-59.2 105.9,-59.2 106.7,-59.3C117.6,-60 129.1,-63.1 142.1,-68.6C152.7,-73.1 163.1,-78.8 174.2,-84.8L178.2,-87C189.9,-93.4 203.2,-100.5 218,-105.9C225.8,-108.7 233.4,-110.8 240.7,-112.1C248.8,-113.5 256.9,-114.1 264.9,-113.8C265.6,-113.8 266.2,-113.7 266.9,-113.7C268.3,-113.6 269.8,-113.5 271.3,-113.4L275.1,-112.9L274.4,-107.4L270.6,-107.9Z" style="fill:rgb(1,105,56);fill-rule:nonzero;"/>
            </g>
        </g>
    </g>
</svg>
