<?xml version="1.0" encoding="UTF-8" standalone="no"?>
<!DOCTYPE svg PUBLIC "-//W3C//DTD SVG 1.1//EN" "http://www.w3.org/Graphics/SVG/1.1/DTD/svg11.dtd">
<svg width="1800px" height="1200px" version="1.1" xmlns="http://www.w3.org/2000/svg" xmlns:xlink="http://www.w3.org/1999/xlink" xml:space="preserve" xmlns:serif="http://www.serif.com/" style="fill-rule:evenodd;clip-rule:evenodd;stroke-linejoin:round;stroke-miterlimit:2;">
    <g transform="matrix(0.681234,0,0,0.692531,-481.524,-49.7175)">
        <g transform="matrix(1.46792,0,0,1.44398,734.451,555.67)">
            <text x="0px" y="296.8px" style="font-family:'Montserrat-SemiBold', 'Montserrat';font-weight:600;font-size:400px;fill:rgb(1,105,56);">23<tspan x="461.6px " y="296.8px ">%</tspan></text>
        </g>
        <g transform="matrix(1.46792,0,0,1.44398,-110.919,293.732)">
            <text x="1421.57px" y="241.878px" style="font-family:'Montserrat-SemiBold', 'Montserrat';font-weight:600;font-size:100px;fill:rgb(1,105,56);">Busin<tspan x="1715.17px " y="241.878px ">e</tspan>sses that</text>
            <text x="1421.57px" y="341.878px" style="font-family:'Montserrat-SemiBold', 'Montserrat';font-weight:600;font-size:100px;fill:rgb(1,105,56);">r<tspan x="1462.57px 1524.77px 1582.07px " y="341.878px 341.878px 341.878px ">ece</tspan>iv<tspan x="1729.47px " y="341.878px ">e</tspan>d outr<tspan x="2103.97px 2164.67px 2225.87px 2283.47px " y="341.878px 341.878px 341.878px 341.878px ">each</tspan></text>
            <text x="1421.57px" y="441.878px" style="font-family:'Montserrat-SemiBold', 'Montserrat';font-weight:600;font-size:100px;fill:rgb(1,105,56);">w<tspan x="1511.97px 1574.17px 1615.17px " y="441.878px 441.878px 441.878px ">ere</tspan> Restaur<tspan x="2104.17px " y="441.878px ">a</tspan>nt/</text>
            <text x="1421.57px" y="541.878px" style="font-family:'Montserrat-SemiBold', 'Montserrat';font-weight:600;font-size:100px;fill:rgb(1,105,56);">F<tspan x="1483.77px " y="541.878px ">o</tspan>od Ser<tspan x="1877.67px " y="541.878px ">v</tspan>ic<tspan x="2021.67px " y="541.878px ">e</tspan>s</text>
        </g>
    </g>
</svg>
