<?xml version="1.0" encoding="UTF-8" standalone="no"?>
<!DOCTYPE svg PUBLIC "-//W3C//DTD SVG 1.1//EN" "http://www.w3.org/Graphics/SVG/1.1/DTD/svg11.dtd">
<svg width="3300px" height="1200px" version="1.1" xmlns="http://www.w3.org/2000/svg" xmlns:xlink="http://www.w3.org/1999/xlink" xml:space="preserve" xmlns:serif="http://www.serif.com/" style="fill-rule:evenodd;clip-rule:evenodd;stroke-linejoin:round;stroke-miterlimit:2;">
    <g transform="matrix(0.983687,0,0,1,127.24,108.43)">
        <g transform="matrix(1.01658,0,0,1,107.739,186.202)">
            <text x="0px" y="463.75px" style="font-family:'Montserrat-SemiBold', 'Montserrat';font-weight:600;font-size:625px;fill:rgb(1,105,56);">23<tspan x="721.25px " y="463.75px ">%</tspan></text>
        </g>
        <g transform="matrix(1.01658,0,0,1,24.3899,-4.19086)">
            <text x="1421.57px" y="278.978px" style="font-family:'Montserrat-SemiBold', 'Montserrat';font-weight:600;font-size:150px;fill:rgb(1,105,56);">Busin<tspan x="1861.97px " y="278.978px ">e</tspan>sses that</text>
            <text x="1421.57px" y="428.978px" style="font-family:'Montserrat-SemiBold', 'Montserrat';font-weight:600;font-size:150px;fill:rgb(1,105,56);">r<tspan x="1483.07px 1576.37px 1662.32px " y="428.978px 428.978px 428.978px ">ece</tspan>iv<tspan x="1883.42px " y="428.978px ">e</tspan>d outr<tspan x="2445.17px 2536.22px 2628.02px 2714.42px " y="428.978px 428.978px 428.978px 428.978px ">each</tspan></text>
            <text x="1421.57px" y="578.978px" style="font-family:'Montserrat-SemiBold', 'Montserrat';font-weight:600;font-size:150px;fill:rgb(1,105,56);">w<tspan x="1557.17px 1650.47px 1711.97px " y="578.978px 578.978px 578.978px ">ere</tspan> Restaur<tspan x="2445.47px " y="578.978px ">a</tspan>nt/</text>
            <text x="1421.57px" y="728.978px" style="font-family:'Montserrat-SemiBold', 'Montserrat';font-weight:600;font-size:150px;fill:rgb(1,105,56);">F<tspan x="1514.87px " y="728.978px ">o</tspan>od Ser<tspan x="2105.72px " y="728.978px ">v</tspan>ic<tspan x="2321.72px " y="728.978px ">e</tspan>s</text>
        </g>
    </g>
</svg>
