<?xml version="1.0" encoding="UTF-8" standalone="no"?>
<!DOCTYPE svg PUBLIC "-//W3C//DTD SVG 1.1//EN" "http://www.w3.org/Graphics/SVG/1.1/DTD/svg11.dtd">
<svg width="875px" height="378px" version="1.1" xmlns="http://www.w3.org/2000/svg" xmlns:xlink="http://www.w3.org/1999/xlink" xml:space="preserve" xmlns:serif="http://www.serif.com/" style="fill-rule:evenodd;clip-rule:evenodd;stroke-linejoin:round;stroke-miterlimit:2;">
    <g transform="matrix(0.681234,0,0,0.692531,-510.655,-167.828)">
        <g transform="matrix(1.46792,0,0,1.44398,826.096,414.775)">
            <text x="0px" y="111.3px" style="font-family:'Montserrat-SemiBold', 'Montserrat';font-weight:600;font-size:150px;fill:rgb(1,105,56);">23<tspan x="173.1px " y="111.3px ">%</tspan></text>
        </g>
        <g transform="matrix(1.46792,0,0,1.44398,-762.477,160.324)">
            <text x="1421.57px" y="195.503px" style="font-family:'Montserrat-SemiBold', 'Montserrat';font-weight:600;font-size:37.5px;fill:rgb(1,105,56);">Busin<tspan x="1531.67px " y="195.503px ">e</tspan>sses that</text>
            <text x="1421.57px" y="233.003px" style="font-family:'Montserrat-SemiBold', 'Montserrat';font-weight:600;font-size:37.5px;fill:rgb(1,105,56);">r<tspan x="1436.94px 1460.27px 1481.76px " y="233.003px 233.003px 233.003px ">ece</tspan>iv<tspan x="1537.03px " y="233.003px ">e</tspan>d outr<tspan x="1677.47px 1700.23px 1723.18px 1744.78px " y="233.003px 233.003px 233.003px 233.003px ">each</tspan></text>
            <text x="1421.57px" y="270.503px" style="font-family:'Montserrat-SemiBold', 'Montserrat';font-weight:600;font-size:37.5px;fill:rgb(1,105,56);">w<tspan x="1455.47px 1478.79px 1494.17px " y="270.503px 270.503px 270.503px ">ere</tspan> Restaur<tspan x="1677.54px " y="270.503px ">a</tspan>nt/</text>
            <text x="1421.57px" y="308.003px" style="font-family:'Montserrat-SemiBold', 'Montserrat';font-weight:600;font-size:37.5px;fill:rgb(1,105,56);">F<tspan x="1444.89px " y="308.003px ">o</tspan>od Ser<tspan x="1592.61px " y="308.003px ">v</tspan>ic<tspan x="1646.61px " y="308.003px ">e</tspan>s</text>
        </g>
    </g>
</svg>
