<?xml version="1.0" encoding="UTF-8" standalone="no"?>
<!DOCTYPE svg PUBLIC "-//W3C//DTD SVG 1.1//EN" "http://www.w3.org/Graphics/SVG/1.1/DTD/svg11.dtd">
<svg width="875px" height="378px" version="1.1" xmlns="http://www.w3.org/2000/svg" xmlns:xlink="http://www.w3.org/1999/xlink" xml:space="preserve" xmlns:serif="http://www.serif.com/" style="fill-rule:evenodd;clip-rule:evenodd;stroke-linejoin:round;stroke-miterlimit:2;">
    <g transform="matrix(0.681234,0,0,0.692531,-510.655,-167.828)">
        <g transform="matrix(1.46792,0,0,1.44398,873.738,336.87)">
            <text x="0px" y="92.75px" style="font-family:'Montserrat-SemiBold', 'Montserrat';font-weight:600;font-size:125px;fill:rgb(1,105,56);">$<tspan x="77.375px 154.25px " y="92.75px 92.75px ">9,</tspan>985,<tspan x="446.625px 524.375px 597.875px " y="92.75px 92.75px 92.75px ">670</tspan></text>
        </g>
        <g transform="matrix(1.46792,0,0,1.44398,-1219.4,273.094)">
            <text x="1421.57px" y="201.686px" style="font-family:'Montserrat-SemiBold', 'Montserrat';font-weight:600;font-size:45.833px;fill:rgb(1,105,56);">P<tspan x="1454.16px 1481.52px 1507.32px 1533.72px 1565.35px 1593.86px 1620.26px " y="201.686px 201.686px 201.686px 201.686px 201.686px 201.686px 201.686px ">aycheck</tspan> P<tspan x="1694.64px 1713.44px 1743px 1761.61px 1790.12px 1817.07px " y="201.686px 201.686px 201.686px 201.686px 201.686px 201.686px ">rotect</tspan>ion P<tspan x="1955.94px 1974.73px " y="201.686px 201.686px ">ro</tspan>gr<tspan x="2054.99px " y="201.686px ">a</tspan>m</text>
            <text x="1421.57px" y="247.52px" style="font-family:'Montserrat-SemiBold', 'Montserrat';font-weight:600;font-size:45.833px;fill:rgb(1,105,56);">L<tspan x="1448.79px 1478.04px " y="247.52px 247.52px ">oa</tspan>ns Rec<tspan x="1661.78px " y="247.52px ">e</tspan>iv<tspan x="1729.34px " y="247.52px ">e</tspan>d b<tspan x="1832.74px " y="247.52px ">y</tspan> Outr<tspan x="1979.91px 2007.73px 2035.78px 2062.18px " y="247.52px 247.52px 247.52px 247.52px ">each</tspan></text>
            <text x="1421.57px" y="293.353px" style="font-family:'Montserrat-SemiBold', 'Montserrat';font-weight:600;font-size:45.833px;fill:rgb(1,105,56);">Recipients</text>
        </g>
    </g>
</svg>
